<svg xmlns="http://www.w3.org/2000/svg" xmlns:xlink="http://www.w3.org/1999/xlink" xmlns:lucid="lucid" width="263.02" height="456.89"><g transform="translate(-3481 -814)" lucid:page-tab-id="0_0"><path d="M3481 820a6 6 0 0 1 6-6h251.02a6 6 0 0 1 6 6v444.9a6 6 0 0 1-6 6H3487a6 6 0 0 1-6-6z" fill="none"/><use xlink:href="#a" transform="matrix(1,0,0,1,3486,819) translate(0 20.727213541666668)"/><use xlink:href="#b" transform="matrix(1,0,0,1,3486,819) translate(72.55794270833333 20.727213541666668)"/><use xlink:href="#c" transform="matrix(1,0,0,1,3486,819) translate(0 46.53971354166667)"/><use xlink:href="#d" transform="matrix(1,0,0,1,3486,819) translate(21.125000000000004 68.47721354166667)"/><use xlink:href="#e" transform="matrix(1,0,0,1,3486,819) translate(34.66666666666667 68.47721354166667)"/><use xlink:href="#d" transform="matrix(1,0,0,1,3486,819) translate(21.125000000000004 89.44986979166667)"/><use xlink:href="#f" transform="matrix(1,0,0,1,3486,819) translate(34.66666666666667 89.44986979166667)"/><use xlink:href="#d" transform="matrix(1,0,0,1,3486,819) translate(21.125000000000004 110.42252604166667)"/><use xlink:href="#g" transform="matrix(1,0,0,1,3486,819) translate(34.66666666666667 110.42252604166667)"/><use xlink:href="#d" transform="matrix(1,0,0,1,3486,819) translate(21.125000000000004 131.39518229166666)"/><use xlink:href="#h" transform="matrix(1,0,0,1,3486,819) translate(34.66666666666667 131.39518229166666)"/><use xlink:href="#d" transform="matrix(1,0,0,1,3486,819) translate(21.125000000000004 152.36783854166666)"/><use xlink:href="#i" transform="matrix(1,0,0,1,3486,819) translate(34.66666666666667 152.36783854166666)"/><use xlink:href="#d" transform="matrix(1,0,0,1,3486,819) translate(21.125000000000004 173.34049479166666)"/><use xlink:href="#j" transform="matrix(1,0,0,1,3486,819) translate(34.66666666666667 173.34049479166666)"/><use xlink:href="#d" transform="matrix(1,0,0,1,3486,819) translate(21.125000000000004 194.31315104166666)"/><use xlink:href="#k" transform="matrix(1,0,0,1,3486,819) translate(34.66666666666667 194.31315104166666)"/><use xlink:href="#d" transform="matrix(1,0,0,1,3486,819) translate(21.125000000000004 215.28580729166666)"/><use xlink:href="#l" transform="matrix(1,0,0,1,3486,819) translate(34.66666666666667 215.28580729166666)"/><use xlink:href="#m" transform="matrix(1,0,0,1,3486,819) translate(252.01 215.28580729166666)"/><use xlink:href="#d" transform="matrix(1,0,0,1,3486,819) translate(21.125000000000004 240.13346354166666)"/><use xlink:href="#n" transform="matrix(1,0,0,1,3486,819) translate(34.66666666666667 240.13346354166666)"/><use xlink:href="#o" transform="matrix(1,0,0,1,3486,819) translate(0 265.9459635416667)"/><use xlink:href="#a" transform="matrix(1,0,0,1,3486,819) translate(0 291.7584635416667)"/><use xlink:href="#p" transform="matrix(1,0,0,1,3486,819) translate(72.55794270833333 291.7584635416667)"/><use xlink:href="#c" transform="matrix(1,0,0,1,3486,819) translate(0 317.5709635416667)"/><use xlink:href="#d" transform="matrix(1,0,0,1,3486,819) translate(21.125000000000004 343.3834635416667)"/><use xlink:href="#q" transform="matrix(1,0,0,1,3486,819) translate(34.66666666666667 343.3834635416667)"/><use xlink:href="#o" transform="matrix(1,0,0,1,3486,819) translate(0 369.1959635416667)"/><use xlink:href="#a" transform="matrix(1,0,0,1,3486,819) translate(0 395.0084635416667)"/><use xlink:href="#r" transform="matrix(1,0,0,1,3486,819) translate(72.55794270833333 395.0084635416667)"/><use xlink:href="#s" transform="matrix(1,0,0,1,3486,819) translate(0 420.8209635416667)"/><use xlink:href="#t" transform="matrix(1,0,0,1,3486,819) translate(4.875000000000001 420.8209635416667)"/><use xlink:href="#u" transform="matrix(1,0,0,1,3486,819) translate(36.01 442.7584635416667)"/><use xlink:href="#v" transform="matrix(1,0,0,1,3486,819) translate(46.135 442.7584635416667)"/><defs><path d="M180 0v-1490h270l367 940c28 72 75 218 110 339 35-117 81-264 110-339l362-940h271V0h-187c2-448-5-837 7-1287-157 497-311 829-483 1287H842C666-458 514-784 354-1284c12 438 5 843 7 1284H180" id="w"/><path d="M628 24c-324 0-524-230-524-574 0-343 198-582 503-582 237 0 487 146 487 559v75H286c9 234 145 362 343 362 132 0 231-58 273-172l174 48C1024-91 857 24 628 24zM287-650h624c-17-190-120-322-304-322-192 0-309 151-320 322" id="x"/><path d="M598-1118v154H368v674c0 100 37 144 132 144 23 0 62-6 92-12L629-6c-37 13-88 20-134 20-193 0-307-107-307-290v-688H20v-154h168v-266h180v266h230" id="y"/><path d="M338-670V0H158v-1490h180v566c73-149 190-208 336-208 226 0 379 139 379 422V0H872v-695c0-172-96-275-252-275-161 0-282 109-282 300" id="z"/><path d="M613 24c-304 0-509-231-509-576 0-350 205-580 509-580 305 0 511 230 511 580 0 345-206 576-511 576zm0-161c226 0 329-195 329-415 0-222-103-419-329-419-223 0-326 196-326 419 0 220 103 415 326 415" id="A"/><path d="M577 24c-279 0-473-224-473-580 0-354 195-576 474-576 218 0 287 134 324 193h14v-551h180V0H922v-173h-20C865-111 790 24 577 24zm27-161c203 0 314-172 314-421 0-247-108-413-314-413-212 0-317 181-317 413 0 235 108 421 317 421" id="B"/><path d="M295 13c-75 0-135-60-135-135s60-135 135-135 135 60 135 135S370 13 295 13zm0-809c-75 0-135-60-135-135s60-135 135-135 135 60 135 135-60 135-135 135" id="C"/><g id="a"><use transform="matrix(0.008463541666666668,0,0,0.008463541666666668,0,0)" xlink:href="#w"/><use transform="matrix(0.008463541666666668,0,0,0.008463541666666668,15.657552083333336,0)" xlink:href="#x"/><use transform="matrix(0.008463541666666668,0,0,0.008463541666666668,25.763020833333336,0)" xlink:href="#y"/><use transform="matrix(0.008463541666666668,0,0,0.008463541666666668,31.433593750000004,0)" xlink:href="#z"/><use transform="matrix(0.008463541666666668,0,0,0.008463541666666668,41.682942708333336,0)" xlink:href="#A"/><use transform="matrix(0.008463541666666668,0,0,0.008463541666666668,52.076171875,0)" xlink:href="#B"/><use transform="matrix(0.008463541666666668,0,0,0.008463541666666668,62.689453125,0)" xlink:href="#C"/></g><path d="M789 20c-398 0-667-293-667-764 0-473 273-766 655-766 315 0 558 198 612 487h-196c-61-191-204-311-415-311-262 0-471 207-471 590 0 380 208 588 482 588 249 0 420-165 425-427H828v-166h572v163c0 370-256 606-611 606" id="D"/><path d="M180 0v-1490h908v168H370v486h669v168H370v500h727V0H180" id="E"/><path d="M98-1322v-168h1126v168H757V0H567v-1322H98" id="F"/><g id="b"><use transform="matrix(0.008463541666666668,0,0,0.008463541666666668,0,0)" xlink:href="#D"/><use transform="matrix(0.008463541666666668,0,0,0.008463541666666668,12.932291666666668,0)" xlink:href="#E"/><use transform="matrix(0.008463541666666668,0,0,0.008463541666666668,23.350911458333336,0)" xlink:href="#F"/></g><path d="M338-670V0H158v-1118h173l1 207c72-158 192-221 342-221 226 0 378 139 378 422V0H872v-695c0-172-96-275-252-275-161 0-282 109-282 300" id="G"/><path d="M158 418v-1536h174v179h20c37-59 106-193 324-193 279 0 474 222 474 576 0 356-194 580-473 580-213 0-288-135-325-197h-14v591H158zm492-555c209 0 317-186 317-421 0-232-105-413-317-413-206 0-314 166-314 413 0 249 111 421 314 421" id="H"/><path d="M158 0v-1118h180V0H158zm91-1301c-68 0-125-53-125-119s57-119 125-119c69 0 126 53 126 119s-57 119-126 119" id="I"/><path d="M538 24C308 24 148-78 108-271l171-41c32 123 123 178 257 178 156 0 256-77 256-169 0-77-54-128-164-154l-186-44c-203-48-300-148-300-305 0-192 176-326 414-326 230 0 351 112 402 269l-163 42c-31-80-94-158-238-158-133 0-233 69-233 162 0 83 57 129 188 160l169 40c203 48 298 149 298 302 0 196-179 339-441 339" id="J"/><g id="c"><use transform="matrix(0.008463541666666668,0,0,0.008463541666666668,0,0)" xlink:href="#E"/><use transform="matrix(0.008463541666666668,0,0,0.008463541666666668,10.418619791666668,0)" xlink:href="#G"/><use transform="matrix(0.008463541666666668,0,0,0.008463541666666668,20.659505208333336,0)" xlink:href="#B"/><use transform="matrix(0.008463541666666668,0,0,0.008463541666666668,31.27278645833334,0)" xlink:href="#H"/><use transform="matrix(0.008463541666666668,0,0,0.008463541666666668,41.886067708333336,0)" xlink:href="#A"/><use transform="matrix(0.008463541666666668,0,0,0.008463541666666668,52.279296875,0)" xlink:href="#I"/><use transform="matrix(0.008463541666666668,0,0,0.008463541666666668,56.477213541666664,0)" xlink:href="#G"/><use transform="matrix(0.008463541666666668,0,0,0.008463541666666668,66.71809895833333,0)" xlink:href="#y"/><use transform="matrix(0.008463541666666668,0,0,0.008463541666666668,72.21940104166667,0)" xlink:href="#J"/><use transform="matrix(0.008463541666666668,0,0,0.008463541666666668,81.36848958333334,0)" xlink:href="#C"/></g><path d="M576-274c-177 0-320-143-320-320s143-320 320-320 320 143 320 320-143 320-320 320" id="K"/><use transform="matrix(0.008463541666666668,0,0,0.008463541666666668,0,0)" xlink:href="#K" id="d"/><path d="M692-1560L212 224H46l480-1784h166" id="L"/><path d="M678-1118v154H420V0H240v-964H20v-154h220v-149c0-194 155-293 318-293 85 0 141 18 168 30l-50 154c-19-6-47-17-97-17-111 0-159 58-159 166v109h258" id="M"/><path d="M537 14c-226 0-379-139-379-422v-710h180v695c0 172 97 275 253 275 160 0 281-109 281-300v-670h181V0H879v-209C806-46 684 14 537 14" id="N"/><g id="e"><use transform="matrix(0.008463541666666668,0,0,0.008463541666666668,0,0)" xlink:href="#L"/><use transform="matrix(0.008463541666666668,0,0,0.008463541666666668,6.246093750000001,0)" xlink:href="#M"/><use transform="matrix(0.008463541666666668,0,0,0.008463541666666668,12.661458333333336,0)" xlink:href="#N"/><use transform="matrix(0.008463541666666668,0,0,0.008463541666666668,22.91080729166667,0)" xlink:href="#G"/><use transform="matrix(0.008463541666666668,0,0,0.008463541666666668,33.15169270833334,0)" xlink:href="#B"/><use transform="matrix(0.008463541666666668,0,0,0.008463541666666668,43.76497395833334,0)" xlink:href="#J"/></g><g id="f"><use transform="matrix(0.008463541666666668,0,0,0.008463541666666668,0,0)" xlink:href="#L"/><use transform="matrix(0.008463541666666668,0,0,0.008463541666666668,6.246093750000001,0)" xlink:href="#M"/><use transform="matrix(0.008463541666666668,0,0,0.008463541666666668,12.661458333333336,0)" xlink:href="#N"/><use transform="matrix(0.008463541666666668,0,0,0.008463541666666668,22.91080729166667,0)" xlink:href="#G"/><use transform="matrix(0.008463541666666668,0,0,0.008463541666666668,33.15169270833334,0)" xlink:href="#B"/><use transform="matrix(0.008463541666666668,0,0,0.008463541666666668,43.76497395833334,0)" xlink:href="#J"/><use transform="matrix(0.008463541666666668,0,0,0.008463541666666668,52.914062500000014,0)" xlink:href="#C"/><use transform="matrix(0.008463541666666668,0,0,0.008463541666666668,57.90755208333335,0)" xlink:href="#I"/><use transform="matrix(0.008463541666666668,0,0,0.008463541666666668,62.105468750000014,0)" xlink:href="#J"/><use transform="matrix(0.008463541666666668,0,0,0.008463541666666668,71.25455729166669,0)" xlink:href="#I"/><use transform="matrix(0.008463541666666668,0,0,0.008463541666666668,75.45247395833336,0)" xlink:href="#G"/></g><path d="M798-719v166H144v-166h654" id="O"/><path d="M471 26C259 26 90-98 90-318c0-256 228-303 435-329 202-27 287-16 287-108 0-139-79-219-234-219-161 0-248 86-283 164l-173-57c86-203 278-265 451-265 150 0 419 46 419 395V0H815v-152h-12C765-73 660 26 471 26zm31-159c199 0 310-134 310-271v-155c-30 35-226 55-295 64-131 17-246 59-246 186 0 116 97 176 231 176" id="P"/><path d="M338-1490V0H158v-1490h180" id="Q"/><g id="g"><use transform="matrix(0.008463541666666668,0,0,0.008463541666666668,0,0)" xlink:href="#L"/><use transform="matrix(0.008463541666666668,0,0,0.008463541666666668,6.246093750000001,0)" xlink:href="#M"/><use transform="matrix(0.008463541666666668,0,0,0.008463541666666668,12.661458333333336,0)" xlink:href="#N"/><use transform="matrix(0.008463541666666668,0,0,0.008463541666666668,22.91080729166667,0)" xlink:href="#G"/><use transform="matrix(0.008463541666666668,0,0,0.008463541666666668,33.15169270833334,0)" xlink:href="#B"/><use transform="matrix(0.008463541666666668,0,0,0.008463541666666668,43.76497395833334,0)" xlink:href="#J"/><use transform="matrix(0.008463541666666668,0,0,0.008463541666666668,52.914062500000014,0)" xlink:href="#O"/><use transform="matrix(0.008463541666666668,0,0,0.008463541666666668,60.886718750000014,0)" xlink:href="#y"/><use transform="matrix(0.008463541666666668,0,0,0.008463541666666668,66.38802083333334,0)" xlink:href="#A"/><use transform="matrix(0.008463541666666668,0,0,0.008463541666666668,76.78125000000001,0)" xlink:href="#y"/><use transform="matrix(0.008463541666666668,0,0,0.008463541666666668,82.53645833333336,0)" xlink:href="#P"/><use transform="matrix(0.008463541666666668,0,0,0.008463541666666668,92.26953125000003,0)" xlink:href="#Q"/></g><path d="M158 0v-1118h174v172h12c41-113 157-188 290-188 26 0 70 2 91 3v181c-11-2-60-10-108-10-161 0-279 109-279 260V0H158" id="R"/><g id="h"><use transform="matrix(0.008463541666666668,0,0,0.008463541666666668,0,0)" xlink:href="#L"/><use transform="matrix(0.008463541666666668,0,0,0.008463541666666668,6.246093750000001,0)" xlink:href="#A"/><use transform="matrix(0.008463541666666668,0,0,0.008463541666666668,16.639322916666668,0)" xlink:href="#R"/><use transform="matrix(0.008463541666666668,0,0,0.008463541666666668,22.876953125,0)" xlink:href="#B"/><use transform="matrix(0.008463541666666668,0,0,0.008463541666666668,33.490234375,0)" xlink:href="#x"/><use transform="matrix(0.008463541666666668,0,0,0.008463541666666668,43.595703125,0)" xlink:href="#R"/><use transform="matrix(0.008463541666666668,0,0,0.008463541666666668,50.12109375,0)" xlink:href="#J"/></g><g id="i"><use transform="matrix(0.008463541666666668,0,0,0.008463541666666668,0,0)" xlink:href="#L"/><use transform="matrix(0.008463541666666668,0,0,0.008463541666666668,6.246093750000001,0)" xlink:href="#H"/><use transform="matrix(0.008463541666666668,0,0,0.008463541666666668,16.859375000000004,0)" xlink:href="#R"/><use transform="matrix(0.008463541666666668,0,0,0.008463541666666668,23.097005208333336,0)" xlink:href="#A"/><use transform="matrix(0.008463541666666668,0,0,0.008463541666666668,33.490234375,0)" xlink:href="#M"/><use transform="matrix(0.008463541666666668,0,0,0.008463541666666668,39.905598958333336,0)" xlink:href="#I"/><use transform="matrix(0.008463541666666668,0,0,0.008463541666666668,44.103515625,0)" xlink:href="#Q"/><use transform="matrix(0.008463541666666668,0,0,0.008463541666666668,48.301432291666664,0)" xlink:href="#x"/></g><path d="M481 0L54-1118h197c107 314 236 620 325 951 87-331 217-637 324-951h197L670 0H481" id="S"/><g id="j"><use transform="matrix(0.008463541666666668,0,0,0.008463541666666668,0,0)" xlink:href="#L"/><use transform="matrix(0.008463541666666668,0,0,0.008463541666666668,6.246093750000001,0)" xlink:href="#G"/><use transform="matrix(0.008463541666666668,0,0,0.008463541666666668,16.486979166666668,0)" xlink:href="#P"/><use transform="matrix(0.008463541666666668,0,0,0.008463541666666668,25.966145833333336,0)" xlink:href="#S"/></g><g id="k"><use transform="matrix(0.008463541666666668,0,0,0.008463541666666668,0,0)" xlink:href="#L"/><use transform="matrix(0.008463541666666668,0,0,0.008463541666666668,6.246093750000001,0)" xlink:href="#G"/><use transform="matrix(0.008463541666666668,0,0,0.008463541666666668,16.486979166666668,0)" xlink:href="#P"/><use transform="matrix(0.008463541666666668,0,0,0.008463541666666668,25.966145833333336,0)" xlink:href="#S"/><use transform="matrix(0.008463541666666668,0,0,0.008463541666666668,34.725911458333336,0)" xlink:href="#L"/><use transform="matrix(0.008463541666666668,0,0,0.008463541666666668,40.972005208333336,0)" xlink:href="#C"/><use transform="matrix(0.008463541666666668,0,0,0.008463541666666668,45.96549479166667,0)" xlink:href="#I"/><use transform="matrix(0.008463541666666668,0,0,0.008463541666666668,50.163411458333336,0)" xlink:href="#J"/><use transform="matrix(0.008463541666666668,0,0,0.008463541666666668,59.3125,0)" xlink:href="#I"/><use transform="matrix(0.008463541666666668,0,0,0.008463541666666668,63.510416666666664,0)" xlink:href="#G"/></g><path d="M613 24c-304 0-509-231-509-576 0-350 205-580 509-580 216 0 392 114 453 309l-173 49c-33-115-133-197-280-197-223 0-326 196-326 419 0 220 103 415 326 415 150 0 252-85 285-206l172 49C1010-95 832 24 613 24" id="T"/><path d="M158 0v-1118h175l1 205c55-151 181-225 313-225 147 0 245 90 285 228 53-141 190-228 352-228 194 0 352 125 352 384V0h-181v-749c0-161-105-225-225-225-151 0-243 103-243 244V0H807v-767c0-124-93-207-219-207-131 0-250 92-250 270V0H158" id="U"/><g id="l"><use transform="matrix(0.008463541666666668,0,0,0.008463541666666668,0,0)" xlink:href="#L"/><use transform="matrix(0.008463541666666668,0,0,0.008463541666666668,6.246093750000001,0)" xlink:href="#T"/><use transform="matrix(0.008463541666666668,0,0,0.008463541666666668,16.148437500000004,0)" xlink:href="#z"/><use transform="matrix(0.008463541666666668,0,0,0.008463541666666668,26.397786458333336,0)" xlink:href="#P"/><use transform="matrix(0.008463541666666668,0,0,0.008463541666666668,36.130859375,0)" xlink:href="#R"/><use transform="matrix(0.008463541666666668,0,0,0.008463541666666668,42.927083333333336,0)" xlink:href="#y"/><use transform="matrix(0.008463541666666668,0,0,0.008463541666666668,48.42838541666667,0)" xlink:href="#J"/><use transform="matrix(0.008463541666666668,0,0,0.008463541666666668,57.57747395833334,0)" xlink:href="#L"/><use transform="matrix(0.008463541666666668,0,0,0.008463541666666668,63.82356770833334,0)" xlink:href="#I"/><use transform="matrix(0.008463541666666668,0,0,0.008463541666666668,68.02148437500001,0)" xlink:href="#G"/><use transform="matrix(0.008463541666666668,0,0,0.008463541666666668,78.0084635416667,0)" xlink:href="#S"/><use transform="matrix(0.008463541666666668,0,0,0.008463541666666668,87.41145833333334,0)" xlink:href="#x"/><use transform="matrix(0.008463541666666668,0,0,0.008463541666666668,97.51692708333334,0)" xlink:href="#J"/><use transform="matrix(0.008463541666666668,0,0,0.008463541666666668,106.66601562500001,0)" xlink:href="#y"/><use transform="matrix(0.008463541666666668,0,0,0.008463541666666668,112.33658854166669,0)" xlink:href="#U"/><use transform="matrix(0.008463541666666668,0,0,0.008463541666666668,127.52018229166669,0)" xlink:href="#x"/><use transform="matrix(0.008463541666666668,0,0,0.008463541666666668,137.62565104166669,0)" xlink:href="#G"/><use transform="matrix(0.008463541666666668,0,0,0.008463541666666668,147.86653645833334,0)" xlink:href="#y"/><use transform="matrix(0.008463541666666668,0,0,0.008463541666666668,153.19856770833334,0)" xlink:href="#O"/><use transform="matrix(0.008463541666666668,0,0,0.008463541666666668,161.17122395833334,0)" xlink:href="#S"/><use transform="matrix(0.008463541666666668,0,0,0.008463541666666668,170.82812500000003,0)" xlink:href="#P"/><use transform="matrix(0.008463541666666668,0,0,0.008463541666666668,180.56119791666669,0)" xlink:href="#Q"/><use transform="matrix(0.008463541666666668,0,0,0.008463541666666668,184.75911458333331,0)" xlink:href="#N"/><use transform="matrix(0.008463541666666668,0,0,0.008463541666666668,195.00846354166669,0)" xlink:href="#x"/></g><g id="n"><use transform="matrix(0.008463541666666668,0,0,0.008463541666666668,0,0)" xlink:href="#L"/><use transform="matrix(0.008463541666666668,0,0,0.008463541666666668,6.246093750000001,0)" xlink:href="#T"/><use transform="matrix(0.008463541666666668,0,0,0.008463541666666668,16.148437500000004,0)" xlink:href="#z"/><use transform="matrix(0.008463541666666668,0,0,0.008463541666666668,26.397786458333336,0)" xlink:href="#P"/><use transform="matrix(0.008463541666666668,0,0,0.008463541666666668,36.130859375,0)" xlink:href="#R"/><use transform="matrix(0.008463541666666668,0,0,0.008463541666666668,42.927083333333336,0)" xlink:href="#y"/><use transform="matrix(0.008463541666666668,0,0,0.008463541666666668,48.42838541666667,0)" xlink:href="#J"/><use transform="matrix(0.008463541666666668,0,0,0.008463541666666668,57.57747395833334,0)" xlink:href="#L"/><use transform="matrix(0.008463541666666668,0,0,0.008463541666666668,63.82356770833334,0)" xlink:href="#M"/><use transform="matrix(0.008463541666666668,0,0,0.008463541666666668,70.23893229166667,0)" xlink:href="#N"/><use transform="matrix(0.008463541666666668,0,0,0.008463541666666668,80.48828125,0)" xlink:href="#G"/><use transform="matrix(0.008463541666666668,0,0,0.008463541666666668,90.72916666666669,0)" xlink:href="#B"/><use transform="matrix(0.008463541666666668,0,0,0.008463541666666668,101.34244791666667,0)" xlink:href="#O"/><use transform="matrix(0.008463541666666668,0,0,0.008463541666666668,109.31510416666667,0)" xlink:href="#P"/><use transform="matrix(0.008463541666666668,0,0,0.008463541666666668,119.04817708333334,0)" xlink:href="#Q"/><use transform="matrix(0.008463541666666668,0,0,0.008463541666666668,123.24609375000001,0)" xlink:href="#Q"/><use transform="matrix(0.008463541666666668,0,0,0.008463541666666668,127.44401041666669,0)" xlink:href="#A"/><use transform="matrix(0.008463541666666668,0,0,0.008463541666666668,137.83723958333334,0)" xlink:href="#T"/><use transform="matrix(0.008463541666666668,0,0,0.008463541666666668,147.90885416666669,0)" xlink:href="#P"/><use transform="matrix(0.008463541666666668,0,0,0.008463541666666668,157.64192708333334,0)" xlink:href="#y"/><use transform="matrix(0.008463541666666668,0,0,0.008463541666666668,163.3125,0)" xlink:href="#I"/><use transform="matrix(0.008463541666666668,0,0,0.008463541666666668,167.51041666666666,0)" xlink:href="#A"/><use transform="matrix(0.008463541666666668,0,0,0.008463541666666668,177.90364583333331,0)" xlink:href="#G"/></g><path d="M180 0v-1490h510c348 0 508 209 508 474 0 266-160 477-507 477H370V0H180zm190-706h312c236 0 327-133 327-310 0-176-91-307-329-307H370v617" id="V"/><path d="M784 20c-382 0-662-292-662-764 0-473 280-766 662-766s660 293 660 766c0 472-278 764-660 764zm0-176c266 0 475-207 475-588 0-383-209-590-475-590-268 0-477 208-477 590 0 380 209 588 477 588" id="W"/><path d="M657 26c-323 0-524-166-541-416h195c15 169 171 246 346 246 202 0 356-106 356-265 5-203-294-238-475-293-239-73-380-191-380-389 0-252 224-419 512-419 294 0 499 171 508 396H992c-17-145-151-228-328-228-193 0-321 102-321 242 0 156 175 211 284 241l149 41c160 44 422 134 422 412 0 244-197 432-541 432" id="X"/><g id="p"><use transform="matrix(0.008463541666666668,0,0,0.008463541666666668,0,0)" xlink:href="#V"/><use transform="matrix(0.008463541666666668,0,0,0.008463541666666668,11.070312500000002,0)" xlink:href="#W"/><use transform="matrix(0.008463541666666668,0,0,0.008463541666666668,24.324218750000004,0)" xlink:href="#X"/><use transform="matrix(0.008463541666666668,0,0,0.008463541666666668,35.44531250000001,0)" xlink:href="#F"/></g><g id="q"><use transform="matrix(0.008463541666666668,0,0,0.008463541666666668,0,0)" xlink:href="#L"/><use transform="matrix(0.008463541666666668,0,0,0.008463541666666668,6.246093750000001,0)" xlink:href="#A"/><use transform="matrix(0.008463541666666668,0,0,0.008463541666666668,16.639322916666668,0)" xlink:href="#R"/><use transform="matrix(0.008463541666666668,0,0,0.008463541666666668,22.876953125,0)" xlink:href="#B"/><use transform="matrix(0.008463541666666668,0,0,0.008463541666666668,33.490234375,0)" xlink:href="#x"/><use transform="matrix(0.008463541666666668,0,0,0.008463541666666668,43.595703125,0)" xlink:href="#R"/><use transform="matrix(0.008463541666666668,0,0,0.008463541666666668,50.12109375,0)" xlink:href="#J"/></g><path d="M763 24c-353 0-583-224-583-531v-983h190v968c0 214 149 370 393 370 243 0 391-156 391-370v-968h190v983c0 307-230 531-581 531" id="Y"/><g id="r"><use transform="matrix(0.008463541666666668,0,0,0.008463541666666668,0,0)" xlink:href="#V"/><use transform="matrix(0.008463541666666668,0,0,0.008463541666666668,11.070312500000002,0)" xlink:href="#Y"/><use transform="matrix(0.008463541666666668,0,0,0.008463541666666668,23.968750000000004,0)" xlink:href="#F"/></g><g id="t"><use transform="matrix(0.008463541666666668,0,0,0.008463541666666668,0,0)" xlink:href="#E"/><use transform="matrix(0.008463541666666668,0,0,0.008463541666666668,10.418619791666668,0)" xlink:href="#G"/><use transform="matrix(0.008463541666666668,0,0,0.008463541666666668,20.659505208333336,0)" xlink:href="#B"/><use transform="matrix(0.008463541666666668,0,0,0.008463541666666668,31.27278645833334,0)" xlink:href="#H"/><use transform="matrix(0.008463541666666668,0,0,0.008463541666666668,41.886067708333336,0)" xlink:href="#A"/><use transform="matrix(0.008463541666666668,0,0,0.008463541666666668,52.279296875,0)" xlink:href="#I"/><use transform="matrix(0.008463541666666668,0,0,0.008463541666666668,56.477213541666664,0)" xlink:href="#G"/><use transform="matrix(0.008463541666666668,0,0,0.008463541666666668,66.71809895833333,0)" xlink:href="#y"/><use transform="matrix(0.008463541666666668,0,0,0.008463541666666668,72.21940104166667,0)" xlink:href="#J"/><use transform="matrix(0.008463541666666668,0,0,0.008463541666666668,81.36848958333334,0)" xlink:href="#C"/></g><use transform="matrix(0.005859375,0,0,0.005859375,0,0)" xlink:href="#K" id="u"/><g id="v"><use transform="matrix(0.008463541666666668,0,0,0.008463541666666668,0,0)" xlink:href="#L"/><use transform="matrix(0.008463541666666668,0,0,0.008463541666666668,6.246093750000001,0)" xlink:href="#H"/><use transform="matrix(0.008463541666666668,0,0,0.008463541666666668,16.859375000000004,0)" xlink:href="#R"/><use transform="matrix(0.008463541666666668,0,0,0.008463541666666668,23.097005208333336,0)" xlink:href="#A"/><use transform="matrix(0.008463541666666668,0,0,0.008463541666666668,33.490234375,0)" xlink:href="#M"/><use transform="matrix(0.008463541666666668,0,0,0.008463541666666668,39.905598958333336,0)" xlink:href="#I"/><use transform="matrix(0.008463541666666668,0,0,0.008463541666666668,44.103515625,0)" xlink:href="#Q"/><use transform="matrix(0.008463541666666668,0,0,0.008463541666666668,48.301432291666664,0)" xlink:href="#x"/></g></defs></g></svg>