<svg xmlns="http://www.w3.org/2000/svg" xmlns:xlink="http://www.w3.org/1999/xlink" xmlns:lucid="lucid" width="1847.21" height="2142"><g transform="translate(760 -79)" lucid:page-tab-id="0_0"><path d="M304.56 80c16.57 0 30 13.43 30 30s-13.43 30-30 30H147.1c-16.58 0-30-13.43-30-30s13.42-30 30-30z" stroke="#000" stroke-width="2" fill="#00c2a8"/><use xlink:href="#a" transform="matrix(1,0,0,1,122.08737864077669,85) translate(73.94140625 35.208333333333336)"/><path d="M-158.16 2160c16.57 0 30 13.43 30 30s-13.43 30-30 30h-157.47c-16.57 0-30-13.43-30-30s13.43-30 30-30z" stroke="#000" stroke-width="2" fill="#00c2a8"/><use xlink:href="#b" transform="matrix(1,0,0,1,-340.63106796116506,2165) translate(79.94401041666666 35.208333333333336)"/><path d="M101.55 206a6 6 0 0 1 6-6H344.1a6 6 0 0 1 6 6v108a6 6 0 0 1-6 6H107.55a6 6 0 0 1-6-6z" stroke="#000" stroke-width="2" fill="#ced4db"/><use xlink:href="#c" transform="matrix(1,0,0,1,113.55339805825244,212) translate(13.201171874999986 37.833333333333336)"/><use xlink:href="#d" transform="matrix(1,0,0,1,113.55339805825244,212) translate(60.10481770833332 37.833333333333336)"/><use xlink:href="#e" transform="matrix(1,0,0,1,113.55339805825244,212) translate(127.93554687500001 37.833333333333336)"/><use xlink:href="#f" transform="matrix(1,0,0,1,113.55339805825244,212) translate(92.86263020833333 76.55208333333334)"/><path d="M101.55 366a6 6 0 0 1 6-6H344.1a6 6 0 0 1 6 6v108a6 6 0 0 1-6 6H107.55a6 6 0 0 1-6-6z" stroke="#000" stroke-width="2" fill="#ced4db"/><use xlink:href="#c" transform="matrix(1,0,0,1,113.55339805825244,372) translate(37.099609374999986 58.833333333333336)"/><use xlink:href="#d" transform="matrix(1,0,0,1,113.55339805825244,372) translate(84.00325520833331 58.833333333333336)"/><use xlink:href="#g" transform="matrix(1,0,0,1,113.55339805825244,372) translate(151.833984375 58.833333333333336)"/><path d="M489.9 366a6 6 0 0 1 6-6h329.75a6 6 0 0 1 6 6v108a6 6 0 0 1-6 6H495.9a6 6 0 0 1-6-6z" stroke="#000" stroke-width="2" fill="#ced4db"/><use xlink:href="#h" transform="matrix(1,0,0,1,501.90291262135935,372) translate(2.2610677083333144 37.833333333333336)"/><use xlink:href="#i" transform="matrix(1,0,0,1,501.90291262135935,372) translate(79.83528645833331 37.833333333333336)"/><use xlink:href="#j" transform="matrix(1,0,0,1,501.90291262135935,372) translate(165.712890625 37.833333333333336)"/><use xlink:href="#k" transform="matrix(1,0,0,1,501.90291262135935,372) translate(203.90299479166669 37.833333333333336)"/><use xlink:href="#l" transform="matrix(1,0,0,1,501.90291262135935,372) translate(258.63606770833337 37.833333333333336)"/><use xlink:href="#m" transform="matrix(1,0,0,1,501.90291262135935,372) translate(47.875 76.55208333333334)"/><use xlink:href="#n" transform="matrix(1,0,0,1,501.90291262135935,372) translate(101.24088541666667 76.55208333333334)"/><use xlink:href="#o" transform="matrix(1,0,0,1,501.90291262135935,372) translate(134.57291666666669 76.55208333333334)"/><path d="M101.55 526a6 6 0 0 1 6-6H344.1a6 6 0 0 1 6 6v108a6 6 0 0 1-6 6H107.55a6 6 0 0 1-6-6z" stroke="#000" stroke-width="2" fill="#ced4db"/><use xlink:href="#c" transform="matrix(1,0,0,1,113.55339805825244,532) translate(13.675130208333329 58.833333333333336)"/><use xlink:href="#p" transform="matrix(1,0,0,1,113.55339805825244,532) translate(60.578776041666664 58.833333333333336)"/><use xlink:href="#q" transform="matrix(1,0,0,1,113.55339805825244,532) translate(121.427734375 58.833333333333336)"/><use xlink:href="#r" transform="matrix(1,0,0,1,113.55339805825244,532) translate(172.60611979166669 58.833333333333336)"/><path d="M489.9 526a6 6 0 0 1 6-6h329.75a6 6 0 0 1 6 6v108a6 6 0 0 1-6 6H495.9a6 6 0 0 1-6-6z" stroke="#000" stroke-width="2" fill="#ced4db"/><use xlink:href="#s" transform="matrix(1,0,0,1,501.90291262135935,532) translate(5.159505208333343 37.833333333333336)"/><use xlink:href="#t" transform="matrix(1,0,0,1,501.90291262135935,532) translate(64.86002604166669 37.833333333333336)"/><use xlink:href="#u" transform="matrix(1,0,0,1,501.90291262135935,532) translate(114.15169270833334 37.833333333333336)"/><use xlink:href="#v" transform="matrix(1,0,0,1,501.90291262135935,532) translate(157.66471354166669 37.833333333333336)"/><use xlink:href="#w" transform="matrix(1,0,0,1,501.90291262135935,532) translate(177.28841145833334 37.833333333333336)"/><use xlink:href="#x" transform="matrix(1,0,0,1,501.90291262135935,532) translate(54.382812499999986 76.55208333333334)"/><use xlink:href="#y" transform="matrix(1,0,0,1,501.90291262135935,532) translate(113.89192708333331 76.55208333333334)"/><use xlink:href="#z" transform="matrix(1,0,0,1,501.90291262135935,532) translate(141.36328125 76.55208333333334)"/><use xlink:href="#A" transform="matrix(1,0,0,1,501.90291262135935,532) translate(174.640625 76.55208333333334)"/><use xlink:href="#B" transform="matrix(1,0,0,1,501.90291262135935,532) translate(220.29557291666669 76.55208333333334)"/><path d="M220.35 682.45a13.4 13.4 0 0 1 10.95 0l167.7 75.1a2.7 2.7 0 0 1 0 4.9l-167.7 75.1a13.4 13.4 0 0 1-10.95 0l-167.7-75.1a2.7 2.7 0 0 1 0-4.9z" stroke="#000" stroke-width="2" fill="#6db1ff"/><use xlink:href="#C" transform="matrix(1,0,0,1,52.18446601941747,685) translate(105.75109375 63.333333333333336)"/><use xlink:href="#D" transform="matrix(1,0,0,1,52.18446601941747,685) translate(185.15213541666668 63.333333333333336)"/><use xlink:href="#E" transform="matrix(1,0,0,1,52.18446601941747,685) translate(83.29015625000001 102.05208333333334)"/><path d="M-147 916a6 6 0 0 1 6-6H95.56a6 6 0 0 1 6 6v108a6 6 0 0 1-6 6H-141a6 6 0 0 1-6-6z" stroke="#000" stroke-width="2" fill="#ced4db"/><use xlink:href="#F" transform="matrix(1,0,0,1,-134.99029126213586,922) translate(39.28385416666666 37.833333333333336)"/><use xlink:href="#G" transform="matrix(1,0,0,1,-134.99029126213586,922) translate(106.2890625 37.833333333333336)"/><use xlink:href="#H" transform="matrix(1,0,0,1,-134.99029126213586,922) translate(41.12630208333333 76.55208333333334)"/><use xlink:href="#I" transform="matrix(1,0,0,1,-134.99029126213586,922) translate(129.21223958333334 76.55208333333334)"/><path d="M655.56 1502.96a10.6 10.6 0 0 1 10.44 0l183.73 104.08a3.4 3.4 0 0 1 0 5.92L666 1717.04a10.6 10.6 0 0 1-10.44 0l-183.74-104.08a3.4 3.4 0 0 1 0-5.92z" stroke="#000" stroke-width="2" fill="#6db1ff"/><use xlink:href="#J" transform="matrix(1,0,0,1,471.60194174757294,1505) translate(156.70682291666665 39.843333333333334)"/><use xlink:href="#K" transform="matrix(1,0,0,1,471.60194174757294,1505) translate(119.71984375 78.56208333333333)"/><use xlink:href="#L" transform="matrix(1,0,0,1,471.60194174757294,1505) translate(224.00369791666668 78.56208333333333)"/><use xlink:href="#M" transform="matrix(1,0,0,1,471.60194174757294,1505) translate(36.02843750000001 117.28083333333333)"/><use xlink:href="#N" transform="matrix(1,0,0,1,471.60194174757294,1505) translate(154.16645833333334 117.28083333333333)"/><use xlink:href="#O" transform="matrix(1,0,0,1,471.60194174757294,1505) translate(222.18729166666668 117.28083333333333)"/><use xlink:href="#P" transform="matrix(1,0,0,1,471.60194174757294,1505) translate(251.90083333333334 117.28083333333333)"/><use xlink:href="#Q" transform="matrix(1,0,0,1,471.60194174757294,1505) translate(128.59484375 155.99958333333333)"/><path d="M351.6 420h120.92" stroke="#3a414a" fill="none"/><path d="M351.6 420.48h-.5v-.96h.5z" stroke="#3a414a" stroke-width=".05" fill="#3a414a"/><path d="M487.3 420L473 424.63v-9.26z" stroke="#3a414a" fill="#3a414a"/><path d="M351.6 580h120.92" stroke="#3a414a" fill="none"/><path d="M351.6 580.48h-.5v-.96h.5z" stroke="#3a414a" stroke-width=".05" fill="#3a414a"/><path d="M487.3 580L473 584.63v-9.26z" stroke="#3a414a" fill="#3a414a"/><path d="M225.82 141.5v41.12" stroke="#3a414a" fill="none"/><path d="M226.3 141.5h-.95v-.5h.95z" stroke="#3a414a" stroke-width=".05" fill="#3a414a"/><path d="M225.82 197.38l-4.63-14.26h9.26z" stroke="#3a414a" fill="#3a414a"/><path d="M225.82 321.5v21.12" stroke="#3a414a" fill="none"/><path d="M226.3 321.5h-.95v-.5h.95z" stroke="#3a414a" stroke-width=".05" fill="#3a414a"/><path d="M225.82 357.38l-4.63-14.26h9.26z" stroke="#3a414a" fill="#3a414a"/><path d="M225.82 481.5v21.12" stroke="#3a414a" fill="none"/><path d="M226.3 481.5h-.95v-.5h.95z" stroke="#3a414a" stroke-width=".05" fill="#3a414a"/><path d="M225.82 517.38l-4.63-14.26h9.26z" stroke="#3a414a" fill="#3a414a"/><path d="M225.82 641.5v22.4" stroke="#3a414a" fill="none"/><path d="M226.3 641.5h-.95v-.5h.95z" stroke="#3a414a" stroke-width=".05" fill="#3a414a"/><path d="M225.82 678.66l-4.63-14.26h9.26z" stroke="#3a414a" fill="#3a414a"/><path d="M-22.24 892.62h-.95v-78.38h.96zm71.8-132.14H-16.7l-.88.06-.85.2-.8.34-.73.45-.66.56-.57.65-.44.74-.33.8-.2.84-.07.88v15.96h-.95v-16l.1-1 .22-.98.4-.94.52-.87.66-.78.78-.66.86-.53.94-.4 1-.23.98-.08h66.3z" stroke="#3a414a" stroke-width=".05" fill="#3a414a"/><path d="M50.06 760l.06.48h-.57v-.96h.57z" fill="#3a414a"/><path stroke="#3a414a" stroke-width=".05" fill="#3a414a"/><path d="M-22.72 907.38l-4.63-14.26h9.27z" fill="#3a414a"/><path d="M-22.72 908.92l-5.3-16.28h10.6zm-3.98-15.33l3.98 12.25 3.98-12.26z" stroke="#3a414a" stroke-width=".05" fill="#3a414a"/><use xlink:href="#R" transform="matrix(1,0,0,1,-46.41636326860838,781.975440140949) translate(0 25.833333333333336)"/><path d="M303.5 922.16a6 6 0 0 1 6-6h314.2a6 6 0 0 1 6 6V1024a6 6 0 0 1-6 6H309.5a6 6 0 0 1-6-6z" stroke="#000" stroke-width="2" fill="#ced4db"/><use xlink:href="#S" transform="matrix(1,0,0,1,315.495145631068,928.1575520833335) translate(58.45963541666666 34.270833333333336)"/><use xlink:href="#T" transform="matrix(1,0,0,1,315.495145631068,928.1575520833335) translate(125.46484375 34.270833333333336)"/><use xlink:href="#U" transform="matrix(1,0,0,1,315.495145631068,928.1575520833335) translate(179.18880208333334 34.270833333333336)"/><use xlink:href="#V" transform="matrix(1,0,0,1,315.495145631068,928.1575520833335) translate(3.674479166666657 72.98958333333334)"/><use xlink:href="#W" transform="matrix(1,0,0,1,315.495145631068,928.1575520833335) translate(123.04947916666666 72.98958333333334)"/><use xlink:href="#X" transform="matrix(1,0,0,1,315.495145631068,928.1575520833335) translate(156.578125 72.98958333333334)"/><use xlink:href="#Y" transform="matrix(1,0,0,1,315.495145631068,928.1575520833335) translate(244.66406250000003 72.98958333333334)"/><path d="M47.18 1146a6 6 0 0 1 6-6H367.4a6 6 0 0 1 6 6v101.84a6 6 0 0 1-6 6H53.18a6 6 0 0 1-6-6z" stroke="#000" stroke-width="2" fill="#ced4db"/><use xlink:href="#Z" transform="matrix(1,0,0,1,59.1844660194175,1152) translate(55.69270833333333 34.270833333333336)"/><use xlink:href="#aa" transform="matrix(1,0,0,1,59.1844660194175,1152) translate(166.9296875 34.270833333333336)"/><use xlink:href="#ab" transform="matrix(1,0,0,1,59.1844660194175,1152) translate(52.0078125 72.98958333333334)"/><use xlink:href="#ac" transform="matrix(1,0,0,1,59.1844660194175,1152) translate(175.58854166666669 72.98958333333334)"/><path d="M467.08 898.77h-.95V821.2h.95zm-5.46-139.17l.98.24.94.4.87.52.78.66.66.77.53.86.4.94.23 1 .08.98v22.96h-.95v-22.92l-.07-.88-.2-.85-.34-.8-.45-.75-.56-.66-.65-.57-.74-.45-.8-.33-.83-.2-.9-.07h-58.5v-.96h58.55z" stroke="#3a414a" stroke-width=".05" fill="#3a414a"/><path d="M402.1 760.48h-.57l.06-.48-.07-.48h.57z" fill="#3a414a"/><path stroke="#3a414a" stroke-width=".05" fill="#3a414a"/><path d="M466.6 913.54l-4.63-14.27h9.27z" fill="#3a414a"/><path d="M466.6 915.08l-5.3-16.28h10.6zm-3.98-15.33L466.6 912l3.98-12.25z" stroke="#3a414a" stroke-width=".05" fill="#3a414a"/><use xlink:href="#ad" transform="matrix(1,0,0,1,448.2620979975728,788.9377110355862) translate(0 25.833333333333336)"/><path d="M-22.72 1031.5v47.5a6 6 0 0 0 6 6h221a6 6 0 0 1 6 6v31.62" stroke="#3a414a" fill="none"/><path d="M-22.24 1031.5h-.95v-.5h.96z" stroke="#3a414a" stroke-width=".05" fill="#3a414a"/><path d="M210.3 1137.38l-4.64-14.26h9.27z" stroke="#3a414a" fill="#3a414a"/><path d="M466.6 1031.5v47.5a6 6 0 0 1-6 6H216.3a6 6 0 0 0-6 6v31.62" stroke="#3a414a" fill="none"/><path d="M467.08 1031.5h-.95v-.5h.95z" stroke="#3a414a" stroke-width=".05" fill="#3a414a"/><path d="M210.3 1137.38l-4.64-14.26h9.27z" stroke="#3a414a" fill="#3a414a"/><path d="M204.8 1322.45a13.4 13.4 0 0 1 10.97 0l167.7 75.1a2.7 2.7 0 0 1 0 4.9l-167.7 75.1a13.4 13.4 0 0 1-10.96 0l-167.67-75.1a2.7 2.7 0 0 1 0-4.9z" stroke="#000" stroke-width="2" fill="#6db1ff"/><use xlink:href="#C" transform="matrix(1,0,0,1,36.650485436893234,1325) translate(105.75109375 63.333333333333336)"/><use xlink:href="#ae" transform="matrix(1,0,0,1,36.650485436893234,1325) translate(185.15213541666668 63.333333333333336)"/><use xlink:href="#af" transform="matrix(1,0,0,1,36.650485436893234,1325) translate(83.29015625000001 102.05208333333334)"/><path d="M655.8 1399.6l.98.24.94.4.86.52.78.66.66.77.53.86.4.94.22 1 .08.98v78.22h-.95v-78.18l-.07-.88-.2-.85-.33-.8-.46-.75-.56-.66-.66-.57-.74-.45-.8-.33-.84-.2-.88-.08H504.2v-.94h150.6zm-269.25.88v-.95h70.26v.94z" stroke="#3a414a" stroke-width=".05" fill="#3a414a"/><path d="M386.56 1400.47H386l.05-.47-.05-.47h.56z" fill="#3a414a"/><path stroke="#3a414a" stroke-width=".05" fill="#3a414a"/><path d="M660.78 1498.96l-4.64-14.26h9.27z" fill="#3a414a"/><path d="M660.78 1500.5l-5.3-16.28h10.6zm-4-15.33l4 12.25 3.98-12.25z" stroke="#3a414a" stroke-width=".05" fill="#3a414a"/><use xlink:href="#R" transform="matrix(1,0,0,1,456.8123850179847,1383.8671875) translate(0 25.833333333333336)"/><path d="M-400 1932.22a6 6 0 0 1 6-6h314.2a6 6 0 0 1 6 6v135.7a6 6 0 0 1-6 6H-394a6 6 0 0 1-6-6z" stroke="#000" stroke-width="2" fill="#ced4db"/><g><use xlink:href="#S" transform="matrix(1,0,0,1,-388,1938.2247667510742) translate(64.76171875 33.583333333333336)"/><use xlink:href="#ag" transform="matrix(1,0,0,1,-388,1938.2247667510742) translate(131.76692708333334 33.583333333333336)"/><use xlink:href="#ah" transform="matrix(1,0,0,1,-388,1938.2247667510742) translate(11.272135416666657 72.30208333333334)"/><use xlink:href="#ai" transform="matrix(1,0,0,1,-388,1938.2247667510742) translate(177.79557291666666 72.30208333333334)"/><use xlink:href="#aj" transform="matrix(1,0,0,1,-388,1938.2247667510742) translate(70.66015625 111.02083333333334)"/><use xlink:href="#ak" transform="matrix(1,0,0,1,-388,1938.2247667510742) translate(130.93359375 111.02083333333334)"/><use xlink:href="#al" transform="matrix(1,0,0,1,-388,1938.2247667510742) translate(205.93359375 111.02083333333334)"/></g><path d="M-50.22 1400.47h-180.66l-.88.07-.84.2-.8.34-.74.45-.66.56-.56.65-.45.74-.35.8-.2.84-.07.88v276.6h-.95v-276.64l.08-1 .25-.98.4-.94.52-.87.66-.78.77-.66.87-.53.94-.4 1-.23 1-.07h180.7zm84.25 0h-47.56v-.94h47.56z" stroke="#3a414a" stroke-width=".05" fill="#3a414a"/><path d="M34.53 1400l.06.47H34v-.94h.57z" fill="#3a414a"/><path stroke="#3a414a" stroke-width=".05" fill="#3a414a"/><path d="M-236.9 1697.38l-4.63-14.26h9.27z" fill="#3a414a"/><path d="M-236.9 1698.92l-5.28-16.28h10.58zm-3.97-15.33l3.98 12.25 4-12.26z" stroke="#3a414a" stroke-width=".05" fill="#3a414a"/><g><use xlink:href="#ad" transform="matrix(1,0,0,1,-50.21458951117381,1383.8671875) translate(0 25.833333333333336)"/></g><path d="M760 1966a6 6 0 0 1 6-6h314.2a6 6 0 0 1 6 6v108a6 6 0 0 1-6 6H766a6 6 0 0 1-6-6z" stroke="#000" stroke-width="2" fill="#ced4db"/><g><use xlink:href="#am" transform="matrix(1,0,0,1,772.0000000000001,1972) translate(45.71223958333333 37.833333333333336)"/><use xlink:href="#an" transform="matrix(1,0,0,1,772.0000000000001,1972) translate(115.32161458333333 37.833333333333336)"/><use xlink:href="#ao" transform="matrix(1,0,0,1,772.0000000000001,1972) translate(236.75390625 37.833333333333336)"/><use xlink:href="#ap" transform="matrix(1,0,0,1,772.0000000000001,1972) translate(91.21354166666666 76.55208333333334)"/></g><path d="M20.18 1610.47h-251.06l-.88.07-.84.2-.8.34-.74.45-.66.56-.56.65-.45.74-.35.8-.2.84-.07.88v66.6h-.95v-66.64l.08-1 .25-.98.4-.94.52-.87.66-.78.77-.66.87-.53.94-.4 1-.23 1-.07H20.17zm448.4 0h-401v-.94h401z" stroke="#3a414a" stroke-width=".05" fill="#3a414a"/><path d="M469.1 1610l.04.47h-.56v-.94h.56z" fill="#3a414a"/><path stroke="#3a414a" stroke-width=".05" fill="#3a414a"/><path d="M-236.9 1697.38l-4.63-14.26h9.27z" fill="#3a414a"/><path d="M-236.9 1698.92l-5.28-16.28h10.58zm-3.97-15.33l3.98 12.25 4-12.26z" stroke="#3a414a" stroke-width=".05" fill="#3a414a"/><g><use xlink:href="#R" transform="matrix(1,0,0,1,20.18309175380036,1593.8671875) translate(0 25.833333333333336)"/></g><path d="M923.58 1942.62h-.95v-177.3h.95zm-5.46-333.02l1 .24.93.4.86.52.8.66.65.77.53.86.4.94.22 1 .08.98v117.06h-.95v-117.02l-.07-.88-.2-.85-.33-.8-.45-.75-.57-.66-.65-.57-.74-.45-.8-.33-.83-.2-.88-.08h-64.14v-.94h64.16z" stroke="#3a414a" stroke-width=".05" fill="#3a414a"/><path d="M852.97 1610.47h-.56l.06-.47-.05-.47h.57z" fill="#3a414a"/><path stroke="#3a414a" stroke-width=".05" fill="#3a414a"/><path d="M923.1 1957.38l-4.63-14.26h9.27z" fill="#3a414a"/><path d="M923.1 1958.92l-5.28-16.28h10.58zm-3.98-15.33l4 12.25 3.97-12.26z" stroke="#3a414a" stroke-width=".05" fill="#3a414a"/><g><use xlink:href="#aq" transform="matrix(1,0,0,1,904.7669523665049,1733.0438717463494) translate(0 25.833333333333336)"/></g><path d="M-236.9 2075.4v67.21" stroke="#3a414a" fill="none"/><path d="M-236.42 2075.42h-.95v-.5h.95z" stroke="#3a414a" stroke-width=".05" fill="#3a414a"/><path d="M-236.9 2157.38l-4.63-14.27h9.27z" stroke="#3a414a" fill="#3a414a"/><path d="M241.36 1966a6 6 0 0 1 6-6h314.2a6 6 0 0 1 6 6v108a6 6 0 0 1-6 6h-314.2a6 6 0 0 1-6-6z" stroke="#000" stroke-width="2" fill="#ced4db"/><g><use xlink:href="#S" transform="matrix(1,0,0,1,253.3592233009709,1972) translate(14.15625 37.833333333333336)"/><use xlink:href="#ar" transform="matrix(1,0,0,1,253.3592233009709,1972) translate(81.16145833333334 37.833333333333336)"/><use xlink:href="#as" transform="matrix(1,0,0,1,253.3592233009709,1972) translate(196.36979166666669 37.833333333333336)"/><use xlink:href="#at" transform="matrix(1,0,0,1,253.3592233009709,1972) translate(264.390625 37.833333333333336)"/><use xlink:href="#au" transform="matrix(1,0,0,1,253.3592233009709,1972) translate(103.53776041666667 76.55208333333334)"/></g><path d="M758.5 2020H584.96" stroke="#3a414a" fill="none"/><path d="M759 2020.47h-.5v-.94h.5z" stroke="#3a414a" stroke-width=".05" fill="#3a414a"/><path d="M570.2 2020l14.26-4.63v9.27z" stroke="#3a414a" fill="#3a414a"/><path d="M239.86 2020H-56.4" stroke="#3a414a" fill="none"/><path d="M240.36 2020.47h-.5v-.94h.5z" stroke="#3a414a" stroke-width=".05" fill="#3a414a"/><path d="M-71.17 2020l14.27-4.63v9.27z" stroke="#3a414a" fill="#3a414a"/><path d="M210.3 1255.34v48.56" stroke="#3a414a" fill="none"/><path d="M210.77 1255.36h-.95v-.52h.95z" stroke="#3a414a" stroke-width=".05" fill="#3a414a"/><path d="M210.3 1318.66l-4.64-14.26h9.27z" stroke="#3a414a" fill="#3a414a"/><path d="M-718.88 1685.8a7.8 7.8 0 0 1 7.55-5.8H-526a4.6 4.6 0 0 1 4.45 5.8l-39.57 148.4a7.8 7.8 0 0 1-7.55 5.8H-754a4.6 4.6 0 0 1-4.45-5.8z" stroke="#4c535d" stroke-width="2" fill="#fe7070"/><g><use xlink:href="#av" transform="matrix(1,0,0,1,-755,1685) translate(40.12435763888889 35.59027777777778)"/><use xlink:href="#aw" transform="matrix(1,0,0,1,-755,1685) translate(106.29189236111111 35.59027777777778)"/><use xlink:href="#ax" transform="matrix(1,0,0,1,-755,1685) translate(181.45465277777777 35.59027777777778)"/><use xlink:href="#ay" transform="matrix(1,0,0,1,-755,1685) translate(63.40061631944445 67.85590277777777)"/><use xlink:href="#az" transform="matrix(1,0,0,1,-755,1685) translate(156.09809895833334 67.85590277777777)"/><use xlink:href="#aA" transform="matrix(1,0,0,1,-755,1685) translate(25.48438368055556 100.12152777777777)"/><use xlink:href="#aB" transform="matrix(1,0,0,1,-755,1685) translate(112.71311631944444 100.12152777777777)"/><use xlink:href="#az" transform="matrix(1,0,0,1,-755,1685) translate(177.01433159722222 100.12152777777777)"/><use xlink:href="#aC" transform="matrix(1,0,0,1,-755,1685) translate(88.39822916666667 132.38715277777777)"/></g><path d="M-400 1706a6 6 0 0 1 6-6h314.2a6 6 0 0 1 6 6v108a6 6 0 0 1-6 6H-394a6 6 0 0 1-6-6z" stroke="#000" stroke-width="2" fill="#ced4db"/><g><use xlink:href="#aD" transform="matrix(1,0,0,1,-388,1712) translate(32.958333333333314 37.833333333333336)"/><use xlink:href="#aE" transform="matrix(1,0,0,1,-388,1712) translate(112.35937499999999 37.833333333333336)"/><use xlink:href="#aF" transform="matrix(1,0,0,1,-388,1712) translate(89.29947916666669 76.55208333333334)"/></g><path d="M-236.9 1821.5v87.34" stroke="#3a414a" fill="none"/><path d="M-236.42 1821.5h-.95v-.5h.95z" stroke="#3a414a" stroke-width=".05" fill="#3a414a"/><path d="M-236.9 1923.6l-4.63-14.26h9.27z" stroke="#3a414a" fill="#3a414a"/><path d="M-539.8 1760h1m4 0h2.02m4 0h2m4.02 0h2m4 0h2.02m4 0h2m4.02 0h2m4 0h2.02m4 0h2m4.02 0h2m4 0h2m4.02 0h2m4.02 0h2m4 0h2m4.02 0h2m4 0h2.02m4 0h2m4.02 0h2m4 0h2.02m4 0h2m4.02 0h2m4 0h2.02m4 0h2m4.02 0h1" stroke="#3a414a" fill="none"/><path d="M-539.8 1760.47h-.63l.26-.94h.38zM-401 1760.47h-.5v-.94h.5z" stroke="#3a414a" stroke-width=".05" fill="#3a414a"/><defs><path fill="#3a414a" d="M657 26c-323 0-524-166-541-416h195c15 169 171 246 346 246 202 0 356-106 356-265 5-203-294-238-475-293-239-73-380-191-380-389 0-252 224-419 512-419 294 0 499 171 508 396H992c-17-145-151-228-328-228-193 0-321 102-321 242 0 156 175 211 284 241l149 41c160 44 422 134 422 412 0 244-197 432-541 432" id="aG"/><path fill="#3a414a" d="M598-1118v154H368v674c0 100 37 144 132 144 23 0 62-6 92-12L629-6c-37 13-88 20-134 20-193 0-307-107-307-290v-688H20v-154h168v-266h180v266h230" id="aH"/><path fill="#3a414a" d="M471 26C259 26 90-98 90-318c0-256 228-303 435-329 202-27 287-16 287-108 0-139-79-219-234-219-161 0-248 86-283 164l-173-57c86-203 278-265 451-265 150 0 419 46 419 395V0H815v-152h-12C765-73 660 26 471 26zm31-159c199 0 310-134 310-271v-155c-30 35-226 55-295 64-131 17-246 59-246 186 0 116 97 176 231 176" id="aI"/><path fill="#3a414a" d="M158 0v-1118h174v172h12c41-113 157-188 290-188 26 0 70 2 91 3v181c-11-2-60-10-108-10-161 0-279 109-279 260V0H158" id="aJ"/><g id="a"><use transform="matrix(0.013020833333333334,0,0,0.013020833333333334,0,0)" xlink:href="#aG"/><use transform="matrix(0.013020833333333334,0,0,0.013020833333333334,17.109375,0)" xlink:href="#aH"/><use transform="matrix(0.013020833333333334,0,0,0.013020833333333334,25.963541666666664,0)" xlink:href="#aI"/><use transform="matrix(0.013020833333333334,0,0,0.013020833333333334,40.9375,0)" xlink:href="#aJ"/><use transform="matrix(0.013020833333333334,0,0,0.013020833333333334,51.393229166666664,0)" xlink:href="#aH"/></g><path fill="#3a414a" d="M180 0v-1490h908v168H370v486h669v168H370v500h727V0H180" id="aK"/><path fill="#3a414a" d="M338-670V0H158v-1118h173l1 207c72-158 192-221 342-221 226 0 378 139 378 422V0H872v-695c0-172-96-275-252-275-161 0-282 109-282 300" id="aL"/><path fill="#3a414a" d="M577 24c-279 0-473-224-473-580 0-354 195-576 474-576 218 0 287 134 324 193h14v-551h180V0H922v-173h-20C865-111 790 24 577 24zm27-161c203 0 314-172 314-421 0-247-108-413-314-413-212 0-317 181-317 413 0 235 108 421 317 421" id="aM"/><g id="b"><use transform="matrix(0.013020833333333334,0,0,0.013020833333333334,0,0)" xlink:href="#aK"/><use transform="matrix(0.013020833333333334,0,0,0.013020833333333334,16.028645833333336,0)" xlink:href="#aL"/><use transform="matrix(0.013020833333333334,0,0,0.013020833333333334,31.783854166666675,0)" xlink:href="#aM"/></g><path fill="#3a414a" d="M763 24c-353 0-583-224-583-531v-983h190v968c0 214 149 370 393 370 243 0 391-156 391-370v-968h190v983c0 307-230 531-581 531" id="aN"/><path fill="#3a414a" d="M538 24C308 24 148-78 108-271l171-41c32 123 123 178 257 178 156 0 256-77 256-169 0-77-54-128-164-154l-186-44c-203-48-300-148-300-305 0-192 176-326 414-326 230 0 351 112 402 269l-163 42c-31-80-94-158-238-158-133 0-233 69-233 162 0 83 57 129 188 160l169 40c203 48 298 149 298 302 0 196-179 339-441 339" id="aO"/><path fill="#3a414a" d="M628 24c-324 0-524-230-524-574 0-343 198-582 503-582 237 0 487 146 487 559v75H286c9 234 145 362 343 362 132 0 231-58 273-172l174 48C1024-91 857 24 628 24zM287-650h624c-17-190-120-322-304-322-192 0-309 151-320 322" id="aP"/><g id="c"><use transform="matrix(0.009114583333333334,0,0,0.009114583333333334,0,-9.041666666666668)" xlink:href="#aN"/><use transform="matrix(0.009114583333333334,0,0,0.009114583333333334,13.890625,-9.041666666666668)" xlink:href="#aO"/><use transform="matrix(0.009114583333333334,0,0,0.009114583333333334,23.743489583333336,-9.041666666666668)" xlink:href="#aP"/><use transform="matrix(0.009114583333333334,0,0,0.009114583333333334,34.626302083333336,-9.041666666666668)" xlink:href="#aJ"/></g><path fill="#3a414a" d="M338-1490V0H158v-1490h180" id="aQ"/><path fill="#3a414a" d="M613 24c-304 0-509-231-509-576 0-350 205-580 509-580 216 0 392 114 453 309l-173 49c-33-115-133-197-280-197-223 0-326 196-326 419 0 220 103 415 326 415 150 0 252-85 285-206l172 49C1010-95 832 24 613 24" id="aR"/><g id="d"><use transform="matrix(0.009114583333333334,0,0,0.009114583333333334,0,-9.041666666666668)" xlink:href="#aO"/><use transform="matrix(0.009114583333333334,0,0,0.009114583333333334,9.852864583333334,-9.041666666666668)" xlink:href="#aP"/><use transform="matrix(0.009114583333333334,0,0,0.009114583333333334,20.735677083333336,-9.041666666666668)" xlink:href="#aQ"/><use transform="matrix(0.009114583333333334,0,0,0.009114583333333334,25.25651041666667,-9.041666666666668)" xlink:href="#aP"/><use transform="matrix(0.009114583333333334,0,0,0.009114583333333334,36.13932291666667,-9.041666666666668)" xlink:href="#aR"/><use transform="matrix(0.009114583333333334,0,0,0.009114583333333334,46.80338541666667,-9.041666666666668)" xlink:href="#aH"/><use transform="matrix(0.009114583333333334,0,0,0.009114583333333334,52.72786458333334,-9.041666666666668)" xlink:href="#aO"/></g><path fill="#3a414a" d="M613 24c-304 0-509-231-509-576 0-350 205-580 509-580 305 0 511 230 511 580 0 345-206 576-511 576zm0-161c226 0 329-195 329-415 0-222-103-419-329-419-223 0-326 196-326 419 0 220 103 415 326 415" id="aS"/><path fill="#3a414a" d="M158 418v-1536h174v179h20c37-59 106-193 324-193 279 0 474 222 474 576 0 356-194 580-473 580-213 0-288-135-325-197h-14v591H158zm492-555c209 0 317-186 317-421 0-232-105-413-317-413-206 0-314 166-314 413 0 249 111 421 314 421" id="aT"/><path fill="#3a414a" d="M158 0v-1118h180V0H158zm91-1301c-68 0-125-53-125-119s57-119 125-119c69 0 126 53 126 119s-57 119-126 119" id="aU"/><g id="e"><use transform="matrix(0.009114583333333334,0,0,0.009114583333333334,0,-9.041666666666668)" xlink:href="#aS"/><use transform="matrix(0.009114583333333334,0,0,0.009114583333333334,11.192708333333334,-9.041666666666668)" xlink:href="#aT"/><use transform="matrix(0.009114583333333334,0,0,0.009114583333333334,22.622395833333336,-9.041666666666668)" xlink:href="#aP"/><use transform="matrix(0.009114583333333334,0,0,0.009114583333333334,33.505208333333336,-9.041666666666668)" xlink:href="#aJ"/><use transform="matrix(0.009114583333333334,0,0,0.009114583333333334,40.532552083333336,-9.041666666666668)" xlink:href="#aI"/><use transform="matrix(0.009114583333333334,0,0,0.009114583333333334,51.01432291666667,-9.041666666666668)" xlink:href="#aH"/><use transform="matrix(0.009114583333333334,0,0,0.009114583333333334,57.12109375000001,-9.041666666666668)" xlink:href="#aU"/><use transform="matrix(0.009114583333333334,0,0,0.009114583333333334,61.64192708333334,-9.041666666666668)" xlink:href="#aS"/><use transform="matrix(0.009114583333333334,0,0,0.009114583333333334,72.83463541666667,-9.041666666666668)" xlink:href="#aL"/></g><path fill="#3a414a" d="M140 405l46-156c120 36 205 19 263-150l32-93L54-1118h197c107 313 237 620 324 950 87-331 219-637 326-950h196L606 167c-68 178-176 259-334 259-64 0-113-12-132-21" id="aV"/><g id="f"><use transform="matrix(0.009114583333333334,0,0,0.009114583333333334,0,-9.041666666666668)" xlink:href="#aH"/><use transform="matrix(0.009114583333333334,0,0,0.009114583333333334,6.471354166666667,-9.041666666666668)" xlink:href="#aV"/><use transform="matrix(0.009114583333333334,0,0,0.009114583333333334,16.962239583333336,-9.041666666666668)" xlink:href="#aT"/><use transform="matrix(0.009114583333333334,0,0,0.009114583333333334,28.391927083333336,-9.041666666666668)" xlink:href="#aP"/></g><path fill="#3a414a" d="M370-1490V0H180v-1490h190" id="aW"/><path fill="#3a414a" d="M180 0v-1490h224l606 953c40 63 108 177 176 312-27-437-7-821-13-1265h190V0h-226C860-448 622-778 356-1262c27 476 11 792 15 1262H180" id="aX"/><g id="g"><use transform="matrix(0.009114583333333334,0,0,0.009114583333333334,0,-9.041666666666668)" xlink:href="#aW"/><use transform="matrix(0.009114583333333334,0,0,0.009114583333333334,5.013020833333334,-9.041666666666668)" xlink:href="#aG"/><use transform="matrix(0.009114583333333334,0,0,0.009114583333333334,16.989583333333336,-9.041666666666668)" xlink:href="#aW"/><use transform="matrix(0.009114583333333334,0,0,0.009114583333333334,22.00260416666667,-9.041666666666668)" xlink:href="#aX"/></g><path fill="#3a414a" d="M232-923l-22-567h194l-22 567H232" id="aY"/><path fill="#3a414a" d="M783 20c-382 0-661-292-661-764 0-473 279-766 661-766 302 0 548 182 601 489h-190c-42-204-217-313-411-313-268 0-476 208-476 590 0 381 209 588 476 588 195 0 369-110 411-313h190c-52 303-296 489-601 489" id="aZ"/><path fill="#3a414a" d="M537 14c-226 0-379-139-379-422v-710h180v695c0 172 97 275 253 275 160 0 281-109 281-300v-670h181V0H879v-209C806-46 684 14 537 14" id="ba"/><g id="h"><use transform="matrix(0.009114583333333334,0,0,0.009114583333333334,0,-9.041666666666668)" xlink:href="#aY"/><use transform="matrix(0.009114583333333334,0,0,0.009114583333333334,5.596354166666667,-9.041666666666668)" xlink:href="#aZ"/><use transform="matrix(0.009114583333333334,0,0,0.009114583333333334,19.231770833333336,-9.041666666666668)" xlink:href="#ba"/><use transform="matrix(0.009114583333333334,0,0,0.009114583333333334,30.269531250000004,-9.041666666666668)" xlink:href="#aJ"/><use transform="matrix(0.009114583333333334,0,0,0.009114583333333334,37.58854166666667,-9.041666666666668)" xlink:href="#aJ"/><use transform="matrix(0.009114583333333334,0,0,0.009114583333333334,44.305989583333336,-9.041666666666668)" xlink:href="#aP"/><use transform="matrix(0.009114583333333334,0,0,0.009114583333333334,55.188802083333336,-9.041666666666668)" xlink:href="#aL"/><use transform="matrix(0.009114583333333334,0,0,0.009114583333333334,66.21744791666667,-9.041666666666668)" xlink:href="#aH"/></g><path fill="#3a414a" d="M338-670V0H158v-1490h180v566c73-149 190-208 336-208 226 0 379 139 379 422V0H872v-695c0-172-96-275-252-275-161 0-282 109-282 300" id="bb"/><path fill="#3a414a" d="M611 442c-248 0-391-105-460-228l146-94c47 65 117 165 314 165 178 0 307-82 307-266v-224h-17C863-141 792-18 576-18c-268 0-472-195-472-546 0-346 197-568 476-568 216 0 288 133 326 193h17v-179h175V29c0 289-215 413-487 413zm-5-620c203 0 314-146 314-390 0-237-108-403-314-403-213 0-319 180-319 403 0 230 109 390 319 390" id="bc"/><g id="i"><use transform="matrix(0.009114583333333334,0,0,0.009114583333333334,0,-9.041666666666668)" xlink:href="#bb"/><use transform="matrix(0.009114583333333334,0,0,0.009114583333333334,11.037760416666668,-9.041666666666668)" xlink:href="#aS"/><use transform="matrix(0.009114583333333334,0,0,0.009114583333333334,22.23046875,-9.041666666666668)" xlink:href="#aQ"/><use transform="matrix(0.009114583333333334,0,0,0.009114583333333334,26.751302083333336,-9.041666666666668)" xlink:href="#aM"/><use transform="matrix(0.009114583333333334,0,0,0.009114583333333334,38.180989583333336,-9.041666666666668)" xlink:href="#aU"/><use transform="matrix(0.009114583333333334,0,0,0.009114583333333334,42.70182291666667,-9.041666666666668)" xlink:href="#aL"/><use transform="matrix(0.009114583333333334,0,0,0.009114583333333334,53.73046875,-9.041666666666668)" xlink:href="#bc"/><use transform="matrix(0.009114583333333334,0,0,0.009114583333333334,65.17838541666667,-9.041666666666668)" xlink:href="#aO"/><use transform="matrix(0.009114583333333334,0,0,0.009114583333333334,75.03125,-9.041666666666668)" xlink:href="#aY"/></g><g id="j"><use transform="matrix(0.009114583333333334,0,0,0.009114583333333334,0,-9.041666666666668)" xlink:href="#aI"/><use transform="matrix(0.009114583333333334,0,0,0.009114583333333334,10.481770833333334,-9.041666666666668)" xlink:href="#aL"/><use transform="matrix(0.009114583333333334,0,0,0.009114583333333334,21.510416666666668,-9.041666666666668)" xlink:href="#aM"/></g><path fill="#3a414a" d="M180 0v-1490h901v168H370v510h643v168H370V0H180" id="bd"/><g id="k"><use transform="matrix(0.009114583333333334,0,0,0.009114583333333334,0,-9.041666666666668)" xlink:href="#aY"/><use transform="matrix(0.009114583333333334,0,0,0.009114583333333334,5.596354166666667,-9.041666666666668)" xlink:href="#bd"/><use transform="matrix(0.009114583333333334,0,0,0.009114583333333334,15.986979166666668,-9.041666666666668)" xlink:href="#ba"/><use transform="matrix(0.009114583333333334,0,0,0.009114583333333334,27.024739583333336,-9.041666666666668)" xlink:href="#aL"/><use transform="matrix(0.009114583333333334,0,0,0.009114583333333334,38.05338541666667,-9.041666666666668)" xlink:href="#aM"/></g><path fill="#3a414a" d="M158 0v-1118h175l1 205c55-151 181-225 313-225 147 0 245 90 285 228 53-141 190-228 352-228 194 0 352 125 352 384V0h-181v-749c0-161-105-225-225-225-151 0-243 103-243 244V0H807v-767c0-124-93-207-219-207-131 0-250 92-250 270V0H158" id="be"/><g id="l"><use transform="matrix(0.009114583333333334,0,0,0.009114583333333334,0,-9.041666666666668)" xlink:href="#aX"/><use transform="matrix(0.009114583333333334,0,0,0.009114583333333334,14.063802083333334,-9.041666666666668)" xlink:href="#aI"/><use transform="matrix(0.009114583333333334,0,0,0.009114583333333334,24.545572916666668,-9.041666666666668)" xlink:href="#be"/><use transform="matrix(0.009114583333333334,0,0,0.009114583333333334,40.89713541666667,-9.041666666666668)" xlink:href="#aP"/><use transform="matrix(0.009114583333333334,0,0,0.009114583333333334,51.50651041666667,-9.041666666666668)" xlink:href="#aY"/></g><path fill="#3a414a" d="M678-1118v154H420V0H240v-964H20v-154h220v-149c0-194 155-293 318-293 85 0 141 18 168 30l-50 154c-19-6-47-17-97-17-111 0-159 58-159 166v109h258" id="bf"/><g id="m"><use transform="matrix(0.009114583333333334,0,0,0.009114583333333334,0,-9.041666666666668)" xlink:href="#bf"/><use transform="matrix(0.009114583333333334,0,0,0.009114583333333334,6.908854166666667,-9.041666666666668)" xlink:href="#aU"/><use transform="matrix(0.009114583333333334,0,0,0.009114583333333334,11.4296875,-9.041666666666668)" xlink:href="#aP"/><use transform="matrix(0.009114583333333334,0,0,0.009114583333333334,22.3125,-9.041666666666668)" xlink:href="#aQ"/><use transform="matrix(0.009114583333333334,0,0,0.009114583333333334,26.833333333333336,-9.041666666666668)" xlink:href="#aM"/><use transform="matrix(0.009114583333333334,0,0,0.009114583333333334,38.263020833333336,-9.041666666666668)" xlink:href="#aO"/></g><g id="n"><use transform="matrix(0.009114583333333334,0,0,0.009114583333333334,0,-9.041666666666668)" xlink:href="#aI"/><use transform="matrix(0.009114583333333334,0,0,0.009114583333333334,10.481770833333334,-9.041666666666668)" xlink:href="#aJ"/><use transform="matrix(0.009114583333333334,0,0,0.009114583333333334,17.19921875,-9.041666666666668)" xlink:href="#aP"/></g><path fill="#3a414a" d="M798-719v166H144v-166h654" id="bg"/><g id="o"><use transform="matrix(0.009114583333333334,0,0,0.009114583333333334,0,-9.041666666666668)" xlink:href="#aI"/><use transform="matrix(0.009114583333333334,0,0,0.009114583333333334,10.481770833333334,-9.041666666666668)" xlink:href="#ba"/><use transform="matrix(0.009114583333333334,0,0,0.009114583333333334,21.51953125,-9.041666666666668)" xlink:href="#aH"/><use transform="matrix(0.009114583333333334,0,0,0.009114583333333334,27.444010416666664,-9.041666666666668)" xlink:href="#aS"/><use transform="matrix(0.009114583333333334,0,0,0.009114583333333334,38.63671875,-9.041666666666668)" xlink:href="#bg"/><use transform="matrix(0.009114583333333334,0,0,0.009114583333333334,47.22265625,-9.041666666666668)" xlink:href="#aT"/><use transform="matrix(0.009114583333333334,0,0,0.009114583333333334,58.65234375000001,-9.041666666666668)" xlink:href="#aS"/><use transform="matrix(0.009114583333333334,0,0,0.009114583333333334,69.84505208333333,-9.041666666666668)" xlink:href="#aT"/><use transform="matrix(0.009114583333333334,0,0,0.009114583333333334,81.27473958333333,-9.041666666666668)" xlink:href="#ba"/><use transform="matrix(0.009114583333333334,0,0,0.009114583333333334,92.3125,-9.041666666666668)" xlink:href="#aQ"/><use transform="matrix(0.009114583333333334,0,0,0.009114583333333334,96.83333333333333,-9.041666666666668)" xlink:href="#aI"/><use transform="matrix(0.009114583333333334,0,0,0.009114583333333334,107.31510416666666,-9.041666666666668)" xlink:href="#aH"/><use transform="matrix(0.009114583333333334,0,0,0.009114583333333334,113.23958333333331,-9.041666666666668)" xlink:href="#aP"/><use transform="matrix(0.009114583333333334,0,0,0.009114583333333334,124.12239583333331,-9.041666666666668)" xlink:href="#aM"/></g><g id="p"><use transform="matrix(0.009114583333333334,0,0,0.009114583333333334,0,-9.041666666666668)" xlink:href="#aP"/><use transform="matrix(0.009114583333333334,0,0,0.009114583333333334,10.8828125,-9.041666666666668)" xlink:href="#aL"/><use transform="matrix(0.009114583333333334,0,0,0.009114583333333334,21.911458333333336,-9.041666666666668)" xlink:href="#aH"/><use transform="matrix(0.009114583333333334,0,0,0.009114583333333334,27.8359375,-9.041666666666668)" xlink:href="#aP"/><use transform="matrix(0.009114583333333334,0,0,0.009114583333333334,38.71875,-9.041666666666668)" xlink:href="#aJ"/><use transform="matrix(0.009114583333333334,0,0,0.009114583333333334,45.74609375,-9.041666666666668)" xlink:href="#aO"/></g><g id="q"><use transform="matrix(0.009114583333333334,0,0,0.009114583333333334,0,-9.041666666666668)" xlink:href="#aH"/><use transform="matrix(0.009114583333333334,0,0,0.009114583333333334,6.106770833333334,-9.041666666666668)" xlink:href="#aJ"/><use transform="matrix(0.009114583333333334,0,0,0.009114583333333334,13.134114583333336,-9.041666666666668)" xlink:href="#aI"/><use transform="matrix(0.009114583333333334,0,0,0.009114583333333334,23.61588541666667,-9.041666666666668)" xlink:href="#aM"/><use transform="matrix(0.009114583333333334,0,0,0.009114583333333334,35.04557291666667,-9.041666666666668)" xlink:href="#aP"/></g><g id="r"><use transform="matrix(0.009114583333333334,0,0,0.009114583333333334,0,-9.041666666666668)" xlink:href="#aM"/><use transform="matrix(0.009114583333333334,0,0,0.009114583333333334,11.4296875,-9.041666666666668)" xlink:href="#aI"/><use transform="matrix(0.009114583333333334,0,0,0.009114583333333334,21.911458333333336,-9.041666666666668)" xlink:href="#aH"/><use transform="matrix(0.009114583333333334,0,0,0.009114583333333334,27.8359375,-9.041666666666668)" xlink:href="#aP"/></g><path fill="#3a414a" d="M600 0L52-1490h200c166 485 304 806 458 1336 156-533 285-846 449-1336h202L819 0H600" id="bh"/><g id="s"><use transform="matrix(0.009114583333333334,0,0,0.009114583333333334,0,-9.041666666666668)" xlink:href="#aY"/><use transform="matrix(0.009114583333333334,0,0,0.009114583333333334,5.596354166666667,-9.041666666666668)" xlink:href="#bh"/><use transform="matrix(0.009114583333333334,0,0,0.009114583333333334,17.52734375,-9.041666666666668)" xlink:href="#aI"/><use transform="matrix(0.009114583333333334,0,0,0.009114583333333334,28.009114583333336,-9.041666666666668)" xlink:href="#aQ"/><use transform="matrix(0.009114583333333334,0,0,0.009114583333333334,32.52994791666667,-9.041666666666668)" xlink:href="#ba"/><use transform="matrix(0.009114583333333334,0,0,0.009114583333333334,43.56770833333334,-9.041666666666668)" xlink:href="#aP"/></g><g id="t"><use transform="matrix(0.009114583333333334,0,0,0.009114583333333334,0,-9.041666666666668)" xlink:href="#aM"/><use transform="matrix(0.009114583333333334,0,0,0.009114583333333334,11.4296875,-9.041666666666668)" xlink:href="#aI"/><use transform="matrix(0.009114583333333334,0,0,0.009114583333333334,21.911458333333336,-9.041666666666668)" xlink:href="#aH"/><use transform="matrix(0.009114583333333334,0,0,0.009114583333333334,27.8359375,-9.041666666666668)" xlink:href="#aP"/><use transform="matrix(0.009114583333333334,0,0,0.009114583333333334,38.4453125,-9.041666666666668)" xlink:href="#aY"/></g><g id="u"><use transform="matrix(0.009114583333333334,0,0,0.009114583333333334,0,-9.041666666666668)" xlink:href="#bf"/><use transform="matrix(0.009114583333333334,0,0,0.009114583333333334,6.908854166666667,-9.041666666666668)" xlink:href="#aU"/><use transform="matrix(0.009114583333333334,0,0,0.009114583333333334,11.4296875,-9.041666666666668)" xlink:href="#aP"/><use transform="matrix(0.009114583333333334,0,0,0.009114583333333334,22.3125,-9.041666666666668)" xlink:href="#aQ"/><use transform="matrix(0.009114583333333334,0,0,0.009114583333333334,26.833333333333336,-9.041666666666668)" xlink:href="#aM"/></g><g id="v"><use transform="matrix(0.009114583333333334,0,0,0.009114583333333334,0,-9.041666666666668)" xlink:href="#aU"/><use transform="matrix(0.009114583333333334,0,0,0.009114583333333334,4.520833333333334,-9.041666666666668)" xlink:href="#aO"/></g><g id="w"><use transform="matrix(0.009114583333333334,0,0,0.009114583333333334,0,-9.041666666666668)" xlink:href="#aI"/><use transform="matrix(0.009114583333333334,0,0,0.009114583333333334,10.481770833333334,-9.041666666666668)" xlink:href="#ba"/><use transform="matrix(0.009114583333333334,0,0,0.009114583333333334,21.51953125,-9.041666666666668)" xlink:href="#aH"/><use transform="matrix(0.009114583333333334,0,0,0.009114583333333334,27.444010416666664,-9.041666666666668)" xlink:href="#aS"/><use transform="matrix(0.009114583333333334,0,0,0.009114583333333334,38.63671875,-9.041666666666668)" xlink:href="#bg"/><use transform="matrix(0.009114583333333334,0,0,0.009114583333333334,47.22265625,-9.041666666666668)" xlink:href="#aT"/><use transform="matrix(0.009114583333333334,0,0,0.009114583333333334,58.65234375000001,-9.041666666666668)" xlink:href="#aS"/><use transform="matrix(0.009114583333333334,0,0,0.009114583333333334,69.84505208333333,-9.041666666666668)" xlink:href="#aT"/><use transform="matrix(0.009114583333333334,0,0,0.009114583333333334,81.27473958333333,-9.041666666666668)" xlink:href="#ba"/><use transform="matrix(0.009114583333333334,0,0,0.009114583333333334,92.3125,-9.041666666666668)" xlink:href="#aQ"/><use transform="matrix(0.009114583333333334,0,0,0.009114583333333334,96.83333333333333,-9.041666666666668)" xlink:href="#aI"/><use transform="matrix(0.009114583333333334,0,0,0.009114583333333334,107.31510416666666,-9.041666666666668)" xlink:href="#aH"/><use transform="matrix(0.009114583333333334,0,0,0.009114583333333334,113.23958333333331,-9.041666666666668)" xlink:href="#aP"/><use transform="matrix(0.009114583333333334,0,0,0.009114583333333334,124.12239583333331,-9.041666666666668)" xlink:href="#aM"/></g><path fill="#3a414a" d="M677 24c-213 0-288-135-325-197h-20V0H158v-1490h180v551h14c37-59 106-193 324-193 279 0 474 222 474 576 0 356-194 580-473 580zm-27-161c209 0 317-186 317-421 0-232-105-413-317-413-206 0-314 166-314 413 0 249 111 421 314 421" id="bi"/><g id="x"><use transform="matrix(0.009114583333333334,0,0,0.009114583333333334,0,-9.041666666666668)" xlink:href="#bi"/><use transform="matrix(0.009114583333333334,0,0,0.009114583333333334,11.611979166666666,-9.041666666666668)" xlink:href="#aI"/><use transform="matrix(0.009114583333333334,0,0,0.009114583333333334,22.09375,-9.041666666666668)" xlink:href="#aO"/><use transform="matrix(0.009114583333333334,0,0,0.009114583333333334,31.946614583333336,-9.041666666666668)" xlink:href="#aP"/><use transform="matrix(0.009114583333333334,0,0,0.009114583333333334,42.829427083333336,-9.041666666666668)" xlink:href="#aM"/></g><g id="y"><use transform="matrix(0.009114583333333334,0,0,0.009114583333333334,0,-9.041666666666668)" xlink:href="#aS"/><use transform="matrix(0.009114583333333334,0,0,0.009114583333333334,11.192708333333334,-9.041666666666668)" xlink:href="#aL"/></g><g id="z"><use transform="matrix(0.009114583333333334,0,0,0.009114583333333334,0,-9.041666666666668)" xlink:href="#aH"/><use transform="matrix(0.009114583333333334,0,0,0.009114583333333334,6.106770833333334,-9.041666666666668)" xlink:href="#bb"/><use transform="matrix(0.009114583333333334,0,0,0.009114583333333334,17.14453125,-9.041666666666668)" xlink:href="#aP"/></g><g id="A"><use transform="matrix(0.009114583333333334,0,0,0.009114583333333334,0,-9.041666666666668)" xlink:href="#bf"/><use transform="matrix(0.009114583333333334,0,0,0.009114583333333334,6.908854166666667,-9.041666666666668)" xlink:href="#ba"/><use transform="matrix(0.009114583333333334,0,0,0.009114583333333334,17.946614583333336,-9.041666666666668)" xlink:href="#aL"/><use transform="matrix(0.009114583333333334,0,0,0.009114583333333334,28.97526041666667,-9.041666666666668)" xlink:href="#aM"/></g><g id="B"><use transform="matrix(0.009114583333333334,0,0,0.009114583333333334,0,-9.041666666666668)" xlink:href="#aJ"/><use transform="matrix(0.009114583333333334,0,0,0.009114583333333334,7.027343750000001,-9.041666666666668)" xlink:href="#ba"/><use transform="matrix(0.009114583333333334,0,0,0.009114583333333334,18.065104166666668,-9.041666666666668)" xlink:href="#aQ"/><use transform="matrix(0.009114583333333334,0,0,0.009114583333333334,22.5859375,-9.041666666666668)" xlink:href="#aP"/><use transform="matrix(0.009114583333333334,0,0,0.009114583333333334,33.46875,-9.041666666666668)" xlink:href="#aO"/></g><path fill="#3a414a" d="M784 20c-382 0-662-292-662-764 0-473 280-766 662-766s660 293 660 766c0 472-278 764-660 764zm0-176c266 0 475-207 475-588 0-383-209-590-475-590-268 0-477 208-477 590 0 380 209 588 477 588" id="bj"/><g id="C"><use transform="matrix(0.013020833333333334,0,0,0.013020833333333334,0,0)" xlink:href="#bj"/><use transform="matrix(0.013020833333333334,0,0,0.013020833333333334,20.390625,0)" xlink:href="#aJ"/><use transform="matrix(0.013020833333333334,0,0,0.013020833333333334,29.986979166666668,0)" xlink:href="#aM"/><use transform="matrix(0.013020833333333334,0,0,0.013020833333333334,46.31510416666667,0)" xlink:href="#aP"/><use transform="matrix(0.013020833333333334,0,0,0.013020833333333334,61.86197916666667,0)" xlink:href="#aJ"/></g><g id="D"><use transform="matrix(0.013020833333333334,0,0,0.013020833333333334,0,0)" xlink:href="#aH"/><use transform="matrix(0.013020833333333334,0,0,0.013020833333333334,9.244791666666668,0)" xlink:href="#aV"/><use transform="matrix(0.013020833333333334,0,0,0.013020833333333334,24.231770833333336,0)" xlink:href="#aT"/><use transform="matrix(0.013020833333333334,0,0,0.013020833333333334,40.559895833333336,0)" xlink:href="#aP"/></g><path fill="#3a414a" d="M180 0v-1490h510c348 0 508 194 508 460 0 198-88 351-276 417L1256 0h-220L726-579c-117 2-238 0-356 1V0H180zm190-747h312c235 0 327-108 327-283 0-177-92-293-329-293H370v576" id="bk"/><path fill="#3a414a" d="M383-449c-3-277 82-343 222-425 88-53 156-134 156-250 0-139-108-227-243-227-118 0-235 70-246 236H82c10-251 200-395 436-395 259 0 427 165 427 393 0 161-74 273-203 352-132 80-180 132-178 316H383zm93 462c-75 0-135-60-135-134 0-75 60-135 135-135 74 0 134 60 134 135 0 74-60 134-134 134" id="bl"/><g id="E"><use transform="matrix(0.013020833333333334,0,0,0.013020833333333334,0,0)" xlink:href="#aY"/><use transform="matrix(0.013020833333333334,0,0,0.013020833333333334,7.994791666666667,0)" xlink:href="#bk"/><use transform="matrix(0.013020833333333334,0,0,0.013020833333333334,24.765625000000004,0)" xlink:href="#aP"/><use transform="matrix(0.013020833333333334,0,0,0.013020833333333334,40.3125,0)" xlink:href="#aM"/><use transform="matrix(0.013020833333333334,0,0,0.013020833333333334,56.640625,0)" xlink:href="#aP"/><use transform="matrix(0.013020833333333334,0,0,0.013020833333333334,72.1875,0)" xlink:href="#be"/><use transform="matrix(0.013020833333333334,0,0,0.013020833333333334,95.546875,0)" xlink:href="#aT"/><use transform="matrix(0.013020833333333334,0,0,0.013020833333333334,111.875,0)" xlink:href="#aH"/><use transform="matrix(0.013020833333333334,0,0,0.013020833333333334,120.59895833333334,0)" xlink:href="#aU"/><use transform="matrix(0.013020833333333334,0,0,0.013020833333333334,127.05729166666664,0)" xlink:href="#aS"/><use transform="matrix(0.013020833333333334,0,0,0.013020833333333334,143.046875,0)" xlink:href="#aL"/><use transform="matrix(0.013020833333333334,0,0,0.013020833333333334,158.80208333333334,0)" xlink:href="#aY"/><use transform="matrix(0.013020833333333334,0,0,0.013020833333333334,166.796875,0)" xlink:href="#bl"/></g><g id="F"><use transform="matrix(0.013020833333333334,0,0,0.013020833333333334,0,0)" xlink:href="#aN"/><use transform="matrix(0.013020833333333334,0,0,0.013020833333333334,19.84375,0)" xlink:href="#aO"/><use transform="matrix(0.013020833333333334,0,0,0.013020833333333334,33.919270833333336,0)" xlink:href="#aP"/><use transform="matrix(0.013020833333333334,0,0,0.013020833333333334,49.466145833333336,0)" xlink:href="#aJ"/></g><g id="G"><use transform="matrix(0.013020833333333334,0,0,0.013020833333333334,0,0)" xlink:href="#aP"/><use transform="matrix(0.013020833333333334,0,0,0.013020833333333334,15.546875,0)" xlink:href="#aL"/><use transform="matrix(0.013020833333333334,0,0,0.013020833333333334,31.302083333333336,0)" xlink:href="#aH"/><use transform="matrix(0.013020833333333334,0,0,0.013020833333333334,39.765625,0)" xlink:href="#aP"/><use transform="matrix(0.013020833333333334,0,0,0.013020833333333334,55.3125,0)" xlink:href="#aJ"/><use transform="matrix(0.013020833333333334,0,0,0.013020833333333334,65.3515625,0)" xlink:href="#aO"/></g><g id="H"><use transform="matrix(0.013020833333333334,0,0,0.013020833333333334,0,0)" xlink:href="#aY"/><use transform="matrix(0.013020833333333334,0,0,0.013020833333333334,7.994791666666667,0)" xlink:href="#aN"/><use transform="matrix(0.013020833333333334,0,0,0.013020833333333334,27.838541666666668,0)" xlink:href="#aL"/><use transform="matrix(0.013020833333333334,0,0,0.013020833333333334,43.59375,0)" xlink:href="#aU"/><use transform="matrix(0.013020833333333334,0,0,0.013020833333333334,50.052083333333336,0)" xlink:href="#aH"/><use transform="matrix(0.013020833333333334,0,0,0.013020833333333334,58.515625,0)" xlink:href="#aO"/><use transform="matrix(0.013020833333333334,0,0,0.013020833333333334,72.59114583333334,0)" xlink:href="#aY"/></g><g id="I"><use transform="matrix(0.013020833333333334,0,0,0.013020833333333334,0,0)" xlink:href="#bf"/><use transform="matrix(0.013020833333333334,0,0,0.013020833333333334,9.869791666666668,0)" xlink:href="#aU"/><use transform="matrix(0.013020833333333334,0,0,0.013020833333333334,16.328125,0)" xlink:href="#aP"/><use transform="matrix(0.013020833333333334,0,0,0.013020833333333334,31.875,0)" xlink:href="#aQ"/><use transform="matrix(0.013020833333333334,0,0,0.013020833333333334,38.333333333333336,0)" xlink:href="#aM"/></g><g id="J"><use transform="matrix(0.013020833333333334,0,0,0.013020833333333334,0,0)" xlink:href="#aN"/><use transform="matrix(0.013020833333333334,0,0,0.013020833333333334,19.84375,0)" xlink:href="#aL"/><use transform="matrix(0.013020833333333334,0,0,0.013020833333333334,35.598958333333336,0)" xlink:href="#aU"/><use transform="matrix(0.013020833333333334,0,0,0.013020833333333334,42.05729166666667,0)" xlink:href="#aH"/><use transform="matrix(0.013020833333333334,0,0,0.013020833333333334,50.52083333333334,0)" xlink:href="#aO"/></g><g id="K"><use transform="matrix(0.013020833333333334,0,0,0.013020833333333334,0,0)" xlink:href="#aP"/><use transform="matrix(0.013020833333333334,0,0,0.013020833333333334,15.546875,0)" xlink:href="#aL"/><use transform="matrix(0.013020833333333334,0,0,0.013020833333333334,31.302083333333336,0)" xlink:href="#aH"/><use transform="matrix(0.013020833333333334,0,0,0.013020833333333334,39.765625,0)" xlink:href="#aP"/><use transform="matrix(0.013020833333333334,0,0,0.013020833333333334,55.3125,0)" xlink:href="#aJ"/><use transform="matrix(0.013020833333333334,0,0,0.013020833333333334,64.90885416666666,0)" xlink:href="#aP"/><use transform="matrix(0.013020833333333334,0,0,0.013020833333333334,80.45572916666666,0)" xlink:href="#aM"/></g><path fill="#3a414a" d="M174-520v-126l944-476v196L406-588v12l712 338v194" id="bm"/><path fill="#3a414a" d="M226-283v-166h904v166H226zm0-434v-166h904v166H226" id="bn"/><g id="L"><use transform="matrix(0.013020833333333334,0,0,0.013020833333333334,0,0)" xlink:href="#bm"/><use transform="matrix(0.013020833333333334,0,0,0.013020833333333334,17.643229166666668,0)" xlink:href="#bn"/></g><path fill="#3a414a" d="M481 0L54-1118h197c107 314 236 620 325 951 87-331 217-637 324-951h197L670 0H481" id="bo"/><g id="M"><use transform="matrix(0.013020833333333334,0,0,0.013020833333333334,0,0)" xlink:href="#aI"/><use transform="matrix(0.013020833333333334,0,0,0.013020833333333334,14.583333333333334,0)" xlink:href="#bo"/><use transform="matrix(0.013020833333333334,0,0,0.013020833333333334,29.440104166666668,0)" xlink:href="#aI"/><use transform="matrix(0.013020833333333334,0,0,0.013020833333333334,44.4140625,0)" xlink:href="#aU"/><use transform="matrix(0.013020833333333334,0,0,0.013020833333333334,50.872395833333336,0)" xlink:href="#aQ"/><use transform="matrix(0.013020833333333334,0,0,0.013020833333333334,57.33072916666667,0)" xlink:href="#aI"/><use transform="matrix(0.013020833333333334,0,0,0.013020833333333334,72.3046875,0)" xlink:href="#bi"/><use transform="matrix(0.013020833333333334,0,0,0.013020833333333334,88.6328125,0)" xlink:href="#aQ"/><use transform="matrix(0.013020833333333334,0,0,0.013020833333333334,95.09114583333333,0)" xlink:href="#aP"/></g><g id="N"><use transform="matrix(0.013020833333333334,0,0,0.013020833333333334,0,0)" xlink:href="#ba"/><use transform="matrix(0.013020833333333334,0,0,0.013020833333333334,15.768229166666668,0)" xlink:href="#aL"/><use transform="matrix(0.013020833333333334,0,0,0.013020833333333334,31.5234375,0)" xlink:href="#aU"/><use transform="matrix(0.013020833333333334,0,0,0.013020833333333334,37.981770833333336,0)" xlink:href="#aH"/><use transform="matrix(0.013020833333333334,0,0,0.013020833333333334,46.44531250000001,0)" xlink:href="#aO"/></g><g id="O"><use transform="matrix(0.013020833333333334,0,0,0.013020833333333334,0,0)" xlink:href="#aU"/><use transform="matrix(0.013020833333333334,0,0,0.013020833333333334,6.458333333333334,0)" xlink:href="#aL"/></g><g id="P"><use transform="matrix(0.013020833333333334,0,0,0.013020833333333334,0,0)" xlink:href="#aR"/><use transform="matrix(0.013020833333333334,0,0,0.013020833333333334,15.234375,0)" xlink:href="#ba"/><use transform="matrix(0.013020833333333334,0,0,0.013020833333333334,31.002604166666668,0)" xlink:href="#aJ"/><use transform="matrix(0.013020833333333334,0,0,0.013020833333333334,41.458333333333336,0)" xlink:href="#aJ"/><use transform="matrix(0.013020833333333334,0,0,0.013020833333333334,51.0546875,0)" xlink:href="#aP"/><use transform="matrix(0.013020833333333334,0,0,0.013020833333333334,66.6015625,0)" xlink:href="#aL"/><use transform="matrix(0.013020833333333334,0,0,0.013020833333333334,82.35677083333333,0)" xlink:href="#aH"/></g><g id="Q"><use transform="matrix(0.013020833333333334,0,0,0.013020833333333334,0,0)" xlink:href="#bb"/><use transform="matrix(0.013020833333333334,0,0,0.013020833333333334,15.768229166666668,0)" xlink:href="#aS"/><use transform="matrix(0.013020833333333334,0,0,0.013020833333333334,31.7578125,0)" xlink:href="#aQ"/><use transform="matrix(0.013020833333333334,0,0,0.013020833333333334,38.216145833333336,0)" xlink:href="#aM"/><use transform="matrix(0.013020833333333334,0,0,0.013020833333333334,54.544270833333336,0)" xlink:href="#aU"/><use transform="matrix(0.013020833333333334,0,0,0.013020833333333334,61.00260416666667,0)" xlink:href="#aL"/><use transform="matrix(0.013020833333333334,0,0,0.013020833333333334,76.7578125,0)" xlink:href="#bc"/><use transform="matrix(0.013020833333333334,0,0,0.013020833333333334,93.11197916666667,0)" xlink:href="#aO"/><use transform="matrix(0.013020833333333334,0,0,0.013020833333333334,107.1875,0)" xlink:href="#bl"/></g><path fill="#333" d="M601 0v-560L49-1490h357l252 464c38 68 67 130 97 208 96-243 225-446 337-672h356L905-560V0H601" id="bp"/><path fill="#333" d="M633 22C291 22 81-200 81-553c0-345 210-579 537-579 292 0 525 185 525 567v84H378c7 183 109 277 260 277 105 0 184-46 216-132l272 51C1071-99 893 22 633 22zM380-669h474c-15-146-94-237-233-237-143 0-229 99-241 237" id="bq"/><path fill="#333" d="M572 22C302 22 117-98 78-306l279-48c29 105 101 156 224 156 114 0 185-48 185-115 0-118-228-130-337-155-215-49-322-150-322-317 0-215 187-347 470-347 265 0 424 116 466 298l-266 47c-24-76-87-130-196-130-98 0-174 46-174 113 0 56 38 95 144 117l201 40c216 44 320 143 320 302 0 220-207 367-500 367" id="br"/><g id="R"><use transform="matrix(0.013020833333333334,0,0,0.013020833333333334,0,0)" xlink:href="#bp"/><use transform="matrix(0.013020833333333334,0,0,0.013020833333333334,16.575520833333332,0)" xlink:href="#bq"/><use transform="matrix(0.013020833333333334,0,0,0.013020833333333334,32.4609375,0)" xlink:href="#br"/></g><g id="S"><use transform="matrix(0.013020833333333334,0,0,0.013020833333333334,0,0)" xlink:href="#aN"/><use transform="matrix(0.013020833333333334,0,0,0.013020833333333334,19.84375,0)" xlink:href="#aO"/><use transform="matrix(0.013020833333333334,0,0,0.013020833333333334,33.919270833333336,0)" xlink:href="#aP"/><use transform="matrix(0.013020833333333334,0,0,0.013020833333333334,49.466145833333336,0)" xlink:href="#aJ"/></g><g id="T"><use transform="matrix(0.013020833333333334,0,0,0.013020833333333334,0,0)" xlink:href="#aR"/><use transform="matrix(0.013020833333333334,0,0,0.013020833333333334,15.494791666666668,0)" xlink:href="#aI"/><use transform="matrix(0.013020833333333334,0,0,0.013020833333333334,30.46875,0)" xlink:href="#aL"/></g><g id="U"><use transform="matrix(0.013020833333333334,0,0,0.013020833333333334,0,0)" xlink:href="#aP"/><use transform="matrix(0.013020833333333334,0,0,0.013020833333333334,15.546875,0)" xlink:href="#aL"/><use transform="matrix(0.013020833333333334,0,0,0.013020833333333334,31.302083333333336,0)" xlink:href="#aH"/><use transform="matrix(0.013020833333333334,0,0,0.013020833333333334,39.765625,0)" xlink:href="#aP"/><use transform="matrix(0.013020833333333334,0,0,0.013020833333333334,55.3125,0)" xlink:href="#aJ"/></g><path fill="#3a414a" d="M52 0l541-1490h220L1361 0h-200l-149-416H398L254 0H52zm404-582h497c-103-290-145-390-251-756-108 377-145 460-246 756" id="bs"/><g id="V"><use transform="matrix(0.013020833333333334,0,0,0.013020833333333334,0,0)" xlink:href="#aY"/><use transform="matrix(0.013020833333333334,0,0,0.013020833333333334,5.885416666666667,0)" xlink:href="#bs"/><use transform="matrix(0.013020833333333334,0,0,0.013020833333333334,24.283854166666668,0)" xlink:href="#be"/><use transform="matrix(0.013020833333333334,0,0,0.013020833333333334,47.64322916666667,0)" xlink:href="#aS"/><use transform="matrix(0.013020833333333334,0,0,0.013020833333333334,63.6328125,0)" xlink:href="#ba"/><use transform="matrix(0.013020833333333334,0,0,0.013020833333333334,79.40104166666667,0)" xlink:href="#aL"/><use transform="matrix(0.013020833333333334,0,0,0.013020833333333334,95.15625,0)" xlink:href="#aH"/><use transform="matrix(0.013020833333333334,0,0,0.013020833333333334,103.88020833333333,0)" xlink:href="#aY"/></g><g id="W"><use transform="matrix(0.013020833333333334,0,0,0.013020833333333334,0,0)" xlink:href="#aS"/><use transform="matrix(0.013020833333333334,0,0,0.013020833333333334,15.989583333333334,0)" xlink:href="#aJ"/></g><g id="X"><use transform="matrix(0.013020833333333334,0,0,0.013020833333333334,0,0)" xlink:href="#aY"/><use transform="matrix(0.013020833333333334,0,0,0.013020833333333334,7.994791666666667,0)" xlink:href="#aN"/><use transform="matrix(0.013020833333333334,0,0,0.013020833333333334,27.838541666666668,0)" xlink:href="#aL"/><use transform="matrix(0.013020833333333334,0,0,0.013020833333333334,43.59375,0)" xlink:href="#aU"/><use transform="matrix(0.013020833333333334,0,0,0.013020833333333334,50.052083333333336,0)" xlink:href="#aH"/><use transform="matrix(0.013020833333333334,0,0,0.013020833333333334,58.515625,0)" xlink:href="#aO"/><use transform="matrix(0.013020833333333334,0,0,0.013020833333333334,72.59114583333334,0)" xlink:href="#aY"/></g><g id="Y"><use transform="matrix(0.013020833333333334,0,0,0.013020833333333334,0,0)" xlink:href="#bf"/><use transform="matrix(0.013020833333333334,0,0,0.013020833333333334,9.869791666666668,0)" xlink:href="#aU"/><use transform="matrix(0.013020833333333334,0,0,0.013020833333333334,16.328125,0)" xlink:href="#aP"/><use transform="matrix(0.013020833333333334,0,0,0.013020833333333334,31.875,0)" xlink:href="#aQ"/><use transform="matrix(0.013020833333333334,0,0,0.013020833333333334,38.333333333333336,0)" xlink:href="#aM"/></g><g id="Z"><use transform="matrix(0.013020833333333334,0,0,0.013020833333333334,0,0)" xlink:href="#aY"/><use transform="matrix(0.013020833333333334,0,0,0.013020833333333334,7.994791666666667,0)" xlink:href="#aG"/><use transform="matrix(0.013020833333333334,0,0,0.013020833333333334,25.104166666666668,0)" xlink:href="#ba"/><use transform="matrix(0.013020833333333334,0,0,0.013020833333333334,40.872395833333336,0)" xlink:href="#bi"/><use transform="matrix(0.013020833333333334,0,0,0.013020833333333334,57.200520833333336,0)" xlink:href="#be"/><use transform="matrix(0.013020833333333334,0,0,0.013020833333333334,80.55989583333334,0)" xlink:href="#aU"/><use transform="matrix(0.013020833333333334,0,0,0.013020833333333334,87.01822916666667,0)" xlink:href="#aH"/><use transform="matrix(0.013020833333333334,0,0,0.013020833333333334,95.7421875,0)" xlink:href="#aY"/></g><g id="aa"><use transform="matrix(0.013020833333333334,0,0,0.013020833333333334,0,0)" xlink:href="#bi"/><use transform="matrix(0.013020833333333334,0,0,0.013020833333333334,16.328125,0)" xlink:href="#ba"/><use transform="matrix(0.013020833333333334,0,0,0.013020833333333334,32.09635416666667,0)" xlink:href="#aH"/><use transform="matrix(0.013020833333333334,0,0,0.013020833333333334,40.169270833333336,0)" xlink:href="#aH"/><use transform="matrix(0.013020833333333334,0,0,0.013020833333333334,48.63281250000001,0)" xlink:href="#aS"/><use transform="matrix(0.013020833333333334,0,0,0.013020833333333334,64.62239583333334,0)" xlink:href="#aL"/></g><g id="ab"><use transform="matrix(0.013020833333333334,0,0,0.013020833333333334,0,0)" xlink:href="#bi"/><use transform="matrix(0.013020833333333334,0,0,0.013020833333333334,16.328125,0)" xlink:href="#aP"/><use transform="matrix(0.013020833333333334,0,0,0.013020833333333334,31.875,0)" xlink:href="#aR"/><use transform="matrix(0.013020833333333334,0,0,0.013020833333333334,47.109375,0)" xlink:href="#aS"/><use transform="matrix(0.013020833333333334,0,0,0.013020833333333334,63.098958333333336,0)" xlink:href="#be"/><use transform="matrix(0.013020833333333334,0,0,0.013020833333333334,86.45833333333334,0)" xlink:href="#aP"/><use transform="matrix(0.013020833333333334,0,0,0.013020833333333334,102.00520833333334,0)" xlink:href="#aO"/></g><g id="ac"><use transform="matrix(0.013020833333333334,0,0,0.013020833333333334,0,0)" xlink:href="#aI"/><use transform="matrix(0.013020833333333334,0,0,0.013020833333333334,14.973958333333334,0)" xlink:href="#aR"/><use transform="matrix(0.013020833333333334,0,0,0.013020833333333334,30.208333333333336,0)" xlink:href="#aH"/><use transform="matrix(0.013020833333333334,0,0,0.013020833333333334,38.93229166666667,0)" xlink:href="#aU"/><use transform="matrix(0.013020833333333334,0,0,0.013020833333333334,45.39062500000001,0)" xlink:href="#bo"/><use transform="matrix(0.013020833333333334,0,0,0.013020833333333334,59.85677083333335,0)" xlink:href="#aP"/></g><path fill="#333" d="M135 0v-1490h340l471 754c59 97 122 210 187 365-32-387-14-721-19-1119h312V0h-341C855-382 627-689 427-1113c32 420 16 695 20 1113H135" id="bt"/><path fill="#333" d="M628 22C291 22 81-210 81-554c0-346 210-578 547-578 336 0 547 232 547 578 0 344-211 576-547 576zm0-236c160 0 242-146 242-341 0-197-82-341-242-341S387-753 387-555c0 195 81 341 241 341" id="bu"/><g id="ad"><use transform="matrix(0.013020833333333334,0,0,0.013020833333333334,0,0)" xlink:href="#bt"/><use transform="matrix(0.013020833333333334,0,0,0.013020833333333334,20.325520833333336,0)" xlink:href="#bu"/></g><g id="ae"><use transform="matrix(0.013020833333333334,0,0,0.013020833333333334,0,0)" xlink:href="#aH"/><use transform="matrix(0.013020833333333334,0,0,0.013020833333333334,9.244791666666668,0)" xlink:href="#aV"/><use transform="matrix(0.013020833333333334,0,0,0.013020833333333334,24.231770833333336,0)" xlink:href="#aT"/><use transform="matrix(0.013020833333333334,0,0,0.013020833333333334,40.559895833333336,0)" xlink:href="#aP"/></g><g id="af"><use transform="matrix(0.013020833333333334,0,0,0.013020833333333334,0,0)" xlink:href="#aY"/><use transform="matrix(0.013020833333333334,0,0,0.013020833333333334,7.994791666666667,0)" xlink:href="#bk"/><use transform="matrix(0.013020833333333334,0,0,0.013020833333333334,24.765625000000004,0)" xlink:href="#aP"/><use transform="matrix(0.013020833333333334,0,0,0.013020833333333334,40.3125,0)" xlink:href="#aM"/><use transform="matrix(0.013020833333333334,0,0,0.013020833333333334,56.640625,0)" xlink:href="#aP"/><use transform="matrix(0.013020833333333334,0,0,0.013020833333333334,72.1875,0)" xlink:href="#be"/><use transform="matrix(0.013020833333333334,0,0,0.013020833333333334,95.546875,0)" xlink:href="#aT"/><use transform="matrix(0.013020833333333334,0,0,0.013020833333333334,111.875,0)" xlink:href="#aH"/><use transform="matrix(0.013020833333333334,0,0,0.013020833333333334,120.59895833333334,0)" xlink:href="#aU"/><use transform="matrix(0.013020833333333334,0,0,0.013020833333333334,127.05729166666664,0)" xlink:href="#aS"/><use transform="matrix(0.013020833333333334,0,0,0.013020833333333334,143.046875,0)" xlink:href="#aL"/><use transform="matrix(0.013020833333333334,0,0,0.013020833333333334,158.80208333333334,0)" xlink:href="#aY"/><use transform="matrix(0.013020833333333334,0,0,0.013020833333333334,166.796875,0)" xlink:href="#bl"/></g><g id="ag"><use transform="matrix(0.013020833333333334,0,0,0.013020833333333334,0,0)" xlink:href="#aJ"/><use transform="matrix(0.013020833333333334,0,0,0.013020833333333334,9.596354166666666,0)" xlink:href="#aP"/><use transform="matrix(0.013020833333333334,0,0,0.013020833333333334,25.143229166666664,0)" xlink:href="#aR"/><use transform="matrix(0.013020833333333334,0,0,0.013020833333333334,40.377604166666664,0)" xlink:href="#aP"/><use transform="matrix(0.013020833333333334,0,0,0.013020833333333334,55.92447916666667,0)" xlink:href="#aU"/><use transform="matrix(0.013020833333333334,0,0,0.013020833333333334,62.3828125,0)" xlink:href="#bo"/><use transform="matrix(0.013020833333333334,0,0,0.013020833333333334,76.84895833333333,0)" xlink:href="#aP"/><use transform="matrix(0.013020833333333334,0,0,0.013020833333333334,92.39583333333333,0)" xlink:href="#aO"/></g><g id="ah"><use transform="matrix(0.013020833333333334,0,0,0.013020833333333334,0,0)" xlink:href="#aR"/><use transform="matrix(0.013020833333333334,0,0,0.013020833333333334,15.234375,0)" xlink:href="#aS"/><use transform="matrix(0.013020833333333334,0,0,0.013020833333333334,31.223958333333336,0)" xlink:href="#aL"/><use transform="matrix(0.013020833333333334,0,0,0.013020833333333334,46.97916666666667,0)" xlink:href="#bf"/><use transform="matrix(0.013020833333333334,0,0,0.013020833333333334,56.84895833333335,0)" xlink:href="#aU"/><use transform="matrix(0.013020833333333334,0,0,0.013020833333333334,63.30729166666668,0)" xlink:href="#aJ"/><use transform="matrix(0.013020833333333334,0,0,0.013020833333333334,73.76302083333334,0)" xlink:href="#be"/><use transform="matrix(0.013020833333333334,0,0,0.013020833333333334,97.12239583333334,0)" xlink:href="#aI"/><use transform="matrix(0.013020833333333334,0,0,0.013020833333333334,112.09635416666667,0)" xlink:href="#aH"/><use transform="matrix(0.013020833333333334,0,0,0.013020833333333334,120.8203125,0)" xlink:href="#aU"/><use transform="matrix(0.013020833333333334,0,0,0.013020833333333334,127.27864583333334,0)" xlink:href="#aS"/><use transform="matrix(0.013020833333333334,0,0,0.013020833333333334,143.26822916666666,0)" xlink:href="#aL"/></g><g id="ai"><use transform="matrix(0.013020833333333334,0,0,0.013020833333333334,0,0)" xlink:href="#be"/><use transform="matrix(0.013020833333333334,0,0,0.013020833333333334,23.359375,0)" xlink:href="#aP"/><use transform="matrix(0.013020833333333334,0,0,0.013020833333333334,38.90625,0)" xlink:href="#aO"/><use transform="matrix(0.013020833333333334,0,0,0.013020833333333334,52.981770833333336,0)" xlink:href="#aO"/><use transform="matrix(0.013020833333333334,0,0,0.013020833333333334,67.05729166666667,0)" xlink:href="#aI"/><use transform="matrix(0.013020833333333334,0,0,0.013020833333333334,82.03125,0)" xlink:href="#bc"/><use transform="matrix(0.013020833333333334,0,0,0.013020833333333334,98.38541666666667,0)" xlink:href="#aP"/></g><path fill="#3a414a" d="M409 0L70-1118h191c89 329 165 560 243 925 75-353 154-601 240-925h192c85 325 161 564 235 922 77-354 157-598 244-922h191L1267 0h-179c-86-307-176-590-250-913C763-588 675-308 588 0H409" id="bv"/><g id="aj"><use transform="matrix(0.013020833333333334,0,0,0.013020833333333334,0,0)" xlink:href="#bv"/><use transform="matrix(0.013020833333333334,0,0,0.013020833333333334,21.822916666666668,0)" xlink:href="#aU"/><use transform="matrix(0.013020833333333334,0,0,0.013020833333333334,28.28125,0)" xlink:href="#aH"/><use transform="matrix(0.013020833333333334,0,0,0.013020833333333334,37.005208333333336,0)" xlink:href="#bb"/></g><g id="ak"><use transform="matrix(0.013020833333333334,0,0,0.013020833333333334,0,0)" xlink:href="#aS"/><use transform="matrix(0.013020833333333334,0,0,0.013020833333333334,15.989583333333334,0)" xlink:href="#aJ"/><use transform="matrix(0.013020833333333334,0,0,0.013020833333333334,25.5859375,0)" xlink:href="#aM"/><use transform="matrix(0.013020833333333334,0,0,0.013020833333333334,41.9140625,0)" xlink:href="#aP"/><use transform="matrix(0.013020833333333334,0,0,0.013020833333333334,57.4609375,0)" xlink:href="#aJ"/></g><path fill="#3a414a" d="M645 0H180v-1490h484c435 0 692 280 692 742 0 466-257 748-711 748zM370-168h263c363 0 539-218 539-580 0-358-176-574-521-574H370v1154" id="bw"/><g id="al"><use transform="matrix(0.013020833333333334,0,0,0.013020833333333334,0,0)" xlink:href="#aW"/><use transform="matrix(0.013020833333333334,0,0,0.013020833333333334,7.161458333333334,0)" xlink:href="#bw"/></g><g id="am"><use transform="matrix(0.013020833333333334,0,0,0.013020833333333334,0,0)" xlink:href="#aK"/><use transform="matrix(0.013020833333333334,0,0,0.013020833333333334,16.028645833333336,0)" xlink:href="#aJ"/><use transform="matrix(0.013020833333333334,0,0,0.013020833333333334,26.484375000000004,0)" xlink:href="#aJ"/><use transform="matrix(0.013020833333333334,0,0,0.013020833333333334,36.08072916666667,0)" xlink:href="#aS"/><use transform="matrix(0.013020833333333334,0,0,0.013020833333333334,52.07031250000001,0)" xlink:href="#aJ"/></g><g id="an"><use transform="matrix(0.013020833333333334,0,0,0.013020833333333334,0,0)" xlink:href="#be"/><use transform="matrix(0.013020833333333334,0,0,0.013020833333333334,23.359375,0)" xlink:href="#aP"/><use transform="matrix(0.013020833333333334,0,0,0.013020833333333334,38.90625,0)" xlink:href="#aO"/><use transform="matrix(0.013020833333333334,0,0,0.013020833333333334,52.981770833333336,0)" xlink:href="#aO"/><use transform="matrix(0.013020833333333334,0,0,0.013020833333333334,67.05729166666667,0)" xlink:href="#aI"/><use transform="matrix(0.013020833333333334,0,0,0.013020833333333334,82.03125,0)" xlink:href="#bc"/><use transform="matrix(0.013020833333333334,0,0,0.013020833333333334,98.38541666666667,0)" xlink:href="#aP"/></g><g id="ao"><use transform="matrix(0.013020833333333334,0,0,0.013020833333333334,0,0)" xlink:href="#aU"/><use transform="matrix(0.013020833333333334,0,0,0.013020833333333334,6.458333333333334,0)" xlink:href="#aO"/></g><g id="ap"><use transform="matrix(0.013020833333333334,0,0,0.013020833333333334,0,0)" xlink:href="#aM"/><use transform="matrix(0.013020833333333334,0,0,0.013020833333333334,16.328125,0)" xlink:href="#aU"/><use transform="matrix(0.013020833333333334,0,0,0.013020833333333334,22.786458333333336,0)" xlink:href="#aO"/><use transform="matrix(0.013020833333333334,0,0,0.013020833333333334,36.86197916666667,0)" xlink:href="#aT"/><use transform="matrix(0.013020833333333334,0,0,0.013020833333333334,53.19010416666667,0)" xlink:href="#aQ"/><use transform="matrix(0.013020833333333334,0,0,0.013020833333333334,59.6484375,0)" xlink:href="#aI"/><use transform="matrix(0.013020833333333334,0,0,0.013020833333333334,74.23177083333334,0)" xlink:href="#aV"/><use transform="matrix(0.013020833333333334,0,0,0.013020833333333334,88.69791666666669,0)" xlink:href="#aP"/><use transform="matrix(0.013020833333333334,0,0,0.013020833333333334,104.24479166666669,0)" xlink:href="#aM"/></g><g id="aq"><use transform="matrix(0.013020833333333334,0,0,0.013020833333333334,0,0)" xlink:href="#bt"/><use transform="matrix(0.013020833333333334,0,0,0.013020833333333334,20.325520833333336,0)" xlink:href="#bu"/></g><g id="ar"><use transform="matrix(0.013020833333333334,0,0,0.013020833333333334,0,0)" xlink:href="#aR"/><use transform="matrix(0.013020833333333334,0,0,0.013020833333333334,15.234375,0)" xlink:href="#bb"/><use transform="matrix(0.013020833333333334,0,0,0.013020833333333334,31.002604166666668,0)" xlink:href="#aI"/><use transform="matrix(0.013020833333333334,0,0,0.013020833333333334,45.9765625,0)" xlink:href="#aL"/><use transform="matrix(0.013020833333333334,0,0,0.013020833333333334,61.731770833333336,0)" xlink:href="#bc"/><use transform="matrix(0.013020833333333334,0,0,0.013020833333333334,78.0859375,0)" xlink:href="#aP"/><use transform="matrix(0.013020833333333334,0,0,0.013020833333333334,93.6328125,0)" xlink:href="#aO"/></g><g id="as"><use transform="matrix(0.013020833333333334,0,0,0.013020833333333334,0,0)" xlink:href="#ba"/><use transform="matrix(0.013020833333333334,0,0,0.013020833333333334,15.768229166666668,0)" xlink:href="#aL"/><use transform="matrix(0.013020833333333334,0,0,0.013020833333333334,31.5234375,0)" xlink:href="#aU"/><use transform="matrix(0.013020833333333334,0,0,0.013020833333333334,37.981770833333336,0)" xlink:href="#aH"/><use transform="matrix(0.013020833333333334,0,0,0.013020833333333334,46.44531250000001,0)" xlink:href="#aO"/></g><g id="at"><use transform="matrix(0.013020833333333334,0,0,0.013020833333333334,0,0)" xlink:href="#aH"/><use transform="matrix(0.013020833333333334,0,0,0.013020833333333334,8.463541666666668,0)" xlink:href="#aS"/></g><g id="au"><use transform="matrix(0.013020833333333334,0,0,0.013020833333333334,0,0)" xlink:href="#aJ"/><use transform="matrix(0.013020833333333334,0,0,0.013020833333333334,9.596354166666666,0)" xlink:href="#aP"/><use transform="matrix(0.013020833333333334,0,0,0.013020833333333334,25.143229166666664,0)" xlink:href="#aM"/><use transform="matrix(0.013020833333333334,0,0,0.013020833333333334,41.471354166666664,0)" xlink:href="#aP"/><use transform="matrix(0.013020833333333334,0,0,0.013020833333333334,57.01822916666667,0)" xlink:href="#aP"/><use transform="matrix(0.013020833333333334,0,0,0.013020833333333334,72.56510416666666,0)" xlink:href="#be"/></g><g id="av"><use transform="matrix(0.010850694444444444,0,0,0.010850694444444444,0,0)" xlink:href="#bj"/><use transform="matrix(0.010850694444444444,0,0,0.010850694444444444,16.9921875,0)" xlink:href="#aJ"/><use transform="matrix(0.010850694444444444,0,0,0.010850694444444444,24.989149305555554,0)" xlink:href="#aM"/><use transform="matrix(0.010850694444444444,0,0,0.010850694444444444,38.595920138888886,0)" xlink:href="#aP"/><use transform="matrix(0.010850694444444444,0,0,0.010850694444444444,51.55164930555556,0)" xlink:href="#aJ"/></g><g id="aw"><use transform="matrix(0.010850694444444444,0,0,0.010850694444444444,0,0)" xlink:href="#aM"/><use transform="matrix(0.010850694444444444,0,0,0.010850694444444444,13.606770833333332,0)" xlink:href="#aP"/><use transform="matrix(0.010850694444444444,0,0,0.010850694444444444,26.5625,0)" xlink:href="#aH"/><use transform="matrix(0.010850694444444444,0,0,0.010850694444444444,33.94097222222222,0)" xlink:href="#aI"/><use transform="matrix(0.010850694444444444,0,0,0.010850694444444444,46.41927083333333,0)" xlink:href="#aU"/><use transform="matrix(0.010850694444444444,0,0,0.010850694444444444,51.80121527777778,0)" xlink:href="#aQ"/><use transform="matrix(0.010850694444444444,0,0,0.010850694444444444,57.18315972222221,0)" xlink:href="#aO"/></g><g id="ax"><use transform="matrix(0.010850694444444444,0,0,0.010850694444444444,0,0)" xlink:href="#aI"/><use transform="matrix(0.010850694444444444,0,0,0.010850694444444444,12.47829861111111,0)" xlink:href="#aJ"/><use transform="matrix(0.010850694444444444,0,0,0.010850694444444444,20.475260416666664,0)" xlink:href="#aP"/></g><g id="ay"><use transform="matrix(0.010850694444444444,0,0,0.010850694444444444,0,0)" xlink:href="#ba"/><use transform="matrix(0.010850694444444444,0,0,0.010850694444444444,13.140190972222221,0)" xlink:href="#aT"/><use transform="matrix(0.010850694444444444,0,0,0.010850694444444444,26.746961805555554,0)" xlink:href="#aM"/><use transform="matrix(0.010850694444444444,0,0,0.010850694444444444,40.353732638888886,0)" xlink:href="#aI"/><use transform="matrix(0.010850694444444444,0,0,0.010850694444444444,52.83203125,0)" xlink:href="#aH"/><use transform="matrix(0.010850694444444444,0,0,0.010850694444444444,59.8849826388889,0)" xlink:href="#aP"/><use transform="matrix(0.010850694444444444,0,0,0.010850694444444444,72.84071180555556,0)" xlink:href="#aM"/></g><g id="az"><use transform="matrix(0.010850694444444444,0,0,0.010850694444444444,0,0)" xlink:href="#aU"/><use transform="matrix(0.010850694444444444,0,0,0.010850694444444444,5.381944444444445,0)" xlink:href="#aL"/></g><g id="aA"><use transform="matrix(0.010850694444444444,0,0,0.010850694444444444,0,0)" xlink:href="#aY"/><use transform="matrix(0.010850694444444444,0,0,0.010850694444444444,6.336805555555555,0)" xlink:href="#aS"/><use transform="matrix(0.010850694444444444,0,0,0.010850694444444444,19.661458333333332,0)" xlink:href="#aJ"/><use transform="matrix(0.010850694444444444,0,0,0.010850694444444444,27.65842013888889,0)" xlink:href="#aM"/><use transform="matrix(0.010850694444444444,0,0,0.010850694444444444,41.265190972222214,0)" xlink:href="#aP"/><use transform="matrix(0.010850694444444444,0,0,0.010850694444444444,54.22092013888888,0)" xlink:href="#aJ"/><use transform="matrix(0.010850694444444444,0,0,0.010850694444444444,62.58680555555554,0)" xlink:href="#aO"/><use transform="matrix(0.010850694444444444,0,0,0.010850694444444444,74.31640624999999,0)" xlink:href="#aY"/></g><g id="aB"><use transform="matrix(0.010850694444444444,0,0,0.010850694444444444,0,0)" xlink:href="#aH"/><use transform="matrix(0.010850694444444444,0,0,0.010850694444444444,7.378472222222222,0)" xlink:href="#aI"/><use transform="matrix(0.010850694444444444,0,0,0.010850694444444444,19.856770833333332,0)" xlink:href="#bi"/><use transform="matrix(0.010850694444444444,0,0,0.010850694444444444,33.463541666666664,0)" xlink:href="#aQ"/><use transform="matrix(0.010850694444444444,0,0,0.010850694444444444,38.84548611111111,0)" xlink:href="#aP"/></g><g id="aC"><use transform="matrix(0.010850694444444444,0,0,0.010850694444444444,0,0)" xlink:href="#aM"/><use transform="matrix(0.010850694444444444,0,0,0.010850694444444444,13.606770833333332,0)" xlink:href="#bi"/></g><g id="aD"><use transform="matrix(0.013020833333333334,0,0,0.013020833333333334,0,0)" xlink:href="#bj"/><use transform="matrix(0.013020833333333334,0,0,0.013020833333333334,20.390625,0)" xlink:href="#aJ"/><use transform="matrix(0.013020833333333334,0,0,0.013020833333333334,29.986979166666668,0)" xlink:href="#aM"/><use transform="matrix(0.013020833333333334,0,0,0.013020833333333334,46.31510416666667,0)" xlink:href="#aP"/><use transform="matrix(0.013020833333333334,0,0,0.013020833333333334,61.86197916666667,0)" xlink:href="#aJ"/></g><g id="aE"><use transform="matrix(0.013020833333333334,0,0,0.013020833333333334,0,0)" xlink:href="#aO"/><use transform="matrix(0.013020833333333334,0,0,0.013020833333333334,14.075520833333334,0)" xlink:href="#ba"/><use transform="matrix(0.013020833333333334,0,0,0.013020833333333334,29.84375,0)" xlink:href="#aR"/><use transform="matrix(0.013020833333333334,0,0,0.013020833333333334,45.078125,0)" xlink:href="#aR"/><use transform="matrix(0.013020833333333334,0,0,0.013020833333333334,60.3125,0)" xlink:href="#aP"/><use transform="matrix(0.013020833333333334,0,0,0.013020833333333334,75.859375,0)" xlink:href="#aO"/><use transform="matrix(0.013020833333333334,0,0,0.013020833333333334,89.93489583333333,0)" xlink:href="#aO"/><use transform="matrix(0.013020833333333334,0,0,0.013020833333333334,104.01041666666666,0)" xlink:href="#bf"/><use transform="matrix(0.013020833333333334,0,0,0.013020833333333334,113.88020833333334,0)" xlink:href="#ba"/><use transform="matrix(0.013020833333333334,0,0,0.013020833333333334,129.6484375,0)" xlink:href="#aQ"/><use transform="matrix(0.013020833333333334,0,0,0.013020833333333334,136.10677083333334,0)" xlink:href="#aQ"/><use transform="matrix(0.013020833333333334,0,0,0.013020833333333334,142.69531250000003,0)" xlink:href="#aV"/></g><g id="aF"><use transform="matrix(0.013020833333333334,0,0,0.013020833333333334,0,0)" xlink:href="#aO"/><use transform="matrix(0.013020833333333334,0,0,0.013020833333333334,14.075520833333334,0)" xlink:href="#ba"/><use transform="matrix(0.013020833333333334,0,0,0.013020833333333334,29.84375,0)" xlink:href="#bi"/><use transform="matrix(0.013020833333333334,0,0,0.013020833333333334,46.171875,0)" xlink:href="#be"/><use transform="matrix(0.013020833333333334,0,0,0.013020833333333334,69.53125,0)" xlink:href="#aU"/><use transform="matrix(0.013020833333333334,0,0,0.013020833333333334,75.98958333333333,0)" xlink:href="#aH"/><use transform="matrix(0.013020833333333334,0,0,0.013020833333333334,84.06249999999999,0)" xlink:href="#aH"/><use transform="matrix(0.013020833333333334,0,0,0.013020833333333334,92.52604166666664,0)" xlink:href="#aP"/><use transform="matrix(0.013020833333333334,0,0,0.013020833333333334,108.07291666666664,0)" xlink:href="#aM"/></g></defs></g></svg>