<svg xmlns="http://www.w3.org/2000/svg" xmlns:xlink="http://www.w3.org/1999/xlink" xmlns:lucid="lucid" width="620" height="440"><g transform="translate(-2760 -1040)" lucid:page-tab-id="0_0"><path d="M2760 1046a6 6 0 0 1 6-6h608a6 6 0 0 1 6 6v428a6 6 0 0 1-6 6h-608a6 6 0 0 1-6-6z" fill="none"/><use xlink:href="#a" transform="matrix(1,0,0,1,2765,1045) translate(0 24.037340494791646)"/><use xlink:href="#b" transform="matrix(1,0,0,1,2765,1045) translate(0 45.00999674479165)"/><use xlink:href="#c" transform="matrix(1,0,0,1,2765,1045) translate(41.71679687500001 45.00999674479165)"/><use xlink:href="#d" transform="matrix(1,0,0,1,2765,1045) translate(144.01 45.00999674479165)"/><use xlink:href="#d" transform="matrix(1,0,0,1,2765,1045) translate(180.01 45.00999674479165)"/><use xlink:href="#d" transform="matrix(1,0,0,1,2765,1045) translate(216.01 45.00999674479165)"/><use xlink:href="#e" transform="matrix(1,0,0,1,2765,1045) translate(252.01 45.00999674479165)"/><use xlink:href="#f" transform="matrix(1,0,0,1,2765,1045) translate(288.01 45.00999674479165)"/><use xlink:href="#g" transform="matrix(1,0,0,1,2765,1045) translate(302.635 45.00999674479165)"/><use xlink:href="#h" transform="matrix(1,0,0,1,2765,1045) translate(318.4872135416667 45.00999674479165)"/><use xlink:href="#i" transform="matrix(1,0,0,1,2765,1045) translate(394.422109375 45.00999674479165)"/><use xlink:href="#j" transform="matrix(1,0,0,1,2765,1045) translate(469.85765625 45.00999674479165)"/><use xlink:href="#k" transform="matrix(1,0,0,1,2765,1045) translate(486.2007552083333 45.00999674479165)"/><use xlink:href="#l" transform="matrix(1,0,0,1,2765,1045) translate(0 65.98265299479165)"/><use xlink:href="#m" transform="matrix(1,0,0,1,2765,1045) translate(39.00000000000001 65.98265299479165)"/><use xlink:href="#n" transform="matrix(1,0,0,1,2765,1045) translate(85.59179687500001 65.98265299479165)"/><use xlink:href="#l" transform="matrix(1,0,0,1,2765,1045) translate(0 90.83030924479165)"/><use xlink:href="#m" transform="matrix(1,0,0,1,2765,1045) translate(39.00000000000001 90.83030924479165)"/><use xlink:href="#o" transform="matrix(1,0,0,1,2765,1045) translate(85.59179687500001 90.83030924479165)"/><use xlink:href="#p" transform="matrix(1,0,0,1,2765,1045) translate(36.01 116.64280924479165)"/><use xlink:href="#m" transform="matrix(1,0,0,1,2765,1045) translate(40.885 116.64280924479165)"/><use xlink:href="#q" transform="matrix(1,0,0,1,2765,1045) translate(87.476796875 116.64280924479165)"/><use xlink:href="#r" transform="matrix(1,0,0,1,2765,1045) translate(36.01 138.58030924479164)"/><use xlink:href="#s" transform="matrix(1,0,0,1,2765,1045) translate(72.01 138.58030924479164)"/><use xlink:href="#t" transform="matrix(1,0,0,1,2765,1045) translate(113.72679687500002 138.58030924479164)"/><use xlink:href="#u" transform="matrix(1,0,0,1,2765,1045) translate(0 163.42796549479164)"/><use xlink:href="#m" transform="matrix(1,0,0,1,2765,1045) translate(43.87500000000001 163.42796549479164)"/><use xlink:href="#v" transform="matrix(1,0,0,1,2765,1045) translate(90.46679687500001 163.42796549479164)"/><use xlink:href="#r" transform="matrix(1,0,0,1,2765,1045) translate(36.01 185.36546549479164)"/><use xlink:href="#w" transform="matrix(1,0,0,1,2765,1045) translate(72.01 185.36546549479164)"/><use xlink:href="#x" transform="matrix(1,0,0,1,2765,1045) translate(76.885 185.36546549479164)"/><use xlink:href="#y" transform="matrix(1,0,0,1,2765,1045) translate(118.60179687500002 185.36546549479164)"/><use xlink:href="#r" transform="matrix(1,0,0,1,2765,1045) translate(36.01 206.33812174479164)"/><use xlink:href="#w" transform="matrix(1,0,0,1,2765,1045) translate(72.01 206.33812174479164)"/><use xlink:href="#x" transform="matrix(1,0,0,1,2765,1045) translate(76.885 206.33812174479164)"/><use xlink:href="#z" transform="matrix(1,0,0,1,2765,1045) translate(118.60179687500002 206.33812174479164)"/><use xlink:href="#b" transform="matrix(1,0,0,1,2765,1045) translate(0 231.18577799479164)"/><use xlink:href="#A" transform="matrix(1,0,0,1,2765,1045) translate(41.71679687500001 231.18577799479164)"/><use xlink:href="#d" transform="matrix(1,0,0,1,2765,1045) translate(108.01 231.18577799479164)"/><use xlink:href="#d" transform="matrix(1,0,0,1,2765,1045) translate(144.01 231.18577799479164)"/><use xlink:href="#d" transform="matrix(1,0,0,1,2765,1045) translate(180.01 231.18577799479164)"/><use xlink:href="#B" transform="matrix(1,0,0,1,2765,1045) translate(216.01 231.18577799479164)"/><use xlink:href="#g" transform="matrix(1,0,0,1,2765,1045) translate(308.635 231.18577799479164)"/><use xlink:href="#C" transform="matrix(1,0,0,1,2765,1045) translate(324.4872135416667 231.18577799479164)"/><use xlink:href="#D" transform="matrix(1,0,0,1,2765,1045) translate(402.41950520833336 231.18577799479164)"/><use xlink:href="#j" transform="matrix(1,0,0,1,2765,1045) translate(460.09854166666673 231.18577799479164)"/><use xlink:href="#E" transform="matrix(1,0,0,1,2765,1045) translate(476.44164062500005 231.18577799479164)"/><use xlink:href="#F" transform="matrix(1,0,0,1,2765,1045) translate(0 256.99827799479164)"/><use xlink:href="#G" transform="matrix(1,0,0,1,2765,1045) translate(9.750000000000002 256.99827799479164)"/><use xlink:href="#H" transform="matrix(1,0,0,1,2765,1045) translate(51.46679687500001 256.99827799479164)"/><use xlink:href="#d" transform="matrix(1,0,0,1,2765,1045) translate(108.01 256.99827799479164)"/><use xlink:href="#I" transform="matrix(1,0,0,1,2765,1045) translate(144.01 256.99827799479164)"/><use xlink:href="#J" transform="matrix(1,0,0,1,2765,1045) translate(0 282.81077799479164)"/><use xlink:href="#K" transform="matrix(1,0,0,1,2765,1045) translate(36.01 282.81077799479164)"/><use xlink:href="#L" transform="matrix(1,0,0,1,2765,1045) translate(77.726796875 282.81077799479164)"/><use xlink:href="#r" transform="matrix(1,0,0,1,2765,1045) translate(36.01 308.62327799479164)"/><use xlink:href="#K" transform="matrix(1,0,0,1,2765,1045) translate(72.01 308.62327799479164)"/><use xlink:href="#M" transform="matrix(1,0,0,1,2765,1045) translate(113.72679687500002 308.62327799479164)"/><use xlink:href="#N" transform="matrix(1,0,0,1,2765,1045) translate(36.01 334.43577799479164)"/><use xlink:href="#G" transform="matrix(1,0,0,1,2765,1045) translate(75.01 334.43577799479164)"/><use xlink:href="#O" transform="matrix(1,0,0,1,2765,1045) translate(116.72679687500002 334.43577799479164)"/><use xlink:href="#P" transform="matrix(1,0,0,1,2765,1045) translate(0 356.37327799479164)"/><use xlink:href="#G" transform="matrix(1,0,0,1,2765,1045) translate(34.12500000000001 356.37327799479164)"/><use xlink:href="#Q" transform="matrix(1,0,0,1,2765,1045) translate(75.84179687500001 356.37327799479164)"/><use xlink:href="#P" transform="matrix(1,0,0,1,2765,1045) translate(0 377.34593424479164)"/><use xlink:href="#G" transform="matrix(1,0,0,1,2765,1045) translate(34.12500000000001 377.34593424479164)"/><use xlink:href="#R" transform="matrix(1,0,0,1,2765,1045) translate(75.84179687500001 377.34593424479164)"/><use xlink:href="#P" transform="matrix(1,0,0,1,2765,1045) translate(0 398.31859049479164)"/><use xlink:href="#x" transform="matrix(1,0,0,1,2765,1045) translate(34.12500000000001 398.31859049479164)"/><use xlink:href="#S" transform="matrix(1,0,0,1,2765,1045) translate(75.84179687500001 398.31859049479164)"/><use xlink:href="#T" transform="matrix(1,0,0,1,2765,1045) translate(0 418.71645507812497)"/><defs><path d="M440-1490V0H135v-1490h305" id="U"/><path d="M135 0v-1490h340l471 754c59 97 122 210 187 365-32-387-14-721-19-1119h312V0h-341C855-382 627-689 427-1113c32 420 16 695 20 1113H135" id="V"/><path d="M571 0L49-1490h339c138 427 271 775 384 1244 111-471 237-815 371-1244h337L970 0H571" id="W"/><path d="M135 0v-1490h997v253H440v360h640v249H440v375h694V0H135" id="X"/><path d="M681 22C323 22 94-145 85-462h297c10 151 131 226 296 226 163 0 271-77 271-190 0-102-95-149-257-189l-164-41c-252-61-403-188-403-405 0-269 236-449 560-449 330 0 546 183 551 445H941c-11-119-106-188-259-188-156 0-244 72-244 172-3 156 226 185 373 221 250 61 445 186 445 436 0 271-213 446-575 446" id="Y"/><path d="M75-1237v-253h1217v253H837V0H531v-1237H75" id="Z"/><path d="M49 0l509-1490h400L1480 0h-339l-115-346H497L386 0H49zm524-585h374c-75-213-124-402-192-666-66 268-110 453-182 666" id="aa"/><path d="M692-1560L212 224H46l480-1784h166" id="ab"/><g id="a"><use transform="matrix(0.008463541666666668,0,0,0.008463541666666668,0,0)" xlink:href="#U"/><use transform="matrix(0.008463541666666668,0,0,0.008463541666666668,4.866536458333334,0)" xlink:href="#V"/><use transform="matrix(0.008463541666666668,0,0,0.008463541666666668,18.078125,0)" xlink:href="#W"/><use transform="matrix(0.008463541666666668,0,0,0.008463541666666668,31.01888020833334,0)" xlink:href="#X"/><use transform="matrix(0.008463541666666668,0,0,0.008463541666666668,41.54752604166667,0)" xlink:href="#Y"/><use transform="matrix(0.008463541666666668,0,0,0.008463541666666668,52.89713541666667,0)" xlink:href="#Z"/><use transform="matrix(0.008463541666666668,0,0,0.008463541666666668,62.926432291666664,0)" xlink:href="#aa"/><use transform="matrix(0.008463541666666668,0,0,0.008463541666666668,75.8671875,0)" xlink:href="#ab"/></g><path d="M654-1866h142v1172h666v142H654v-1314" id="ac"/><path d="M-11-552v-142h1473v142H-11" id="ad"/><g id="b"><use transform="matrix(0.008463541666666668,0,0,0.008463541666666668,0,0)" xlink:href="#ac"/><use transform="matrix(0.008463541666666668,0,0,0.008463541666666668,12.280598958333336,0)" xlink:href="#ad"/><use transform="matrix(0.008463541666666668,0,0,0.008463541666666668,24.56119791666667,0)" xlink:href="#ad"/></g><path d="M572 22C302 22 117-98 78-306l279-48c29 105 101 156 224 156 114 0 185-48 185-115 0-118-228-130-337-155-215-49-322-150-322-317 0-215 187-347 470-347 265 0 424 116 466 298l-266 47c-24-76-87-130-196-130-98 0-174 46-174 113 0 56 38 95 144 117l201 40c216 44 320 143 320 302 0 220-207 367-500 367" id="ae"/><path d="M633 22C291 22 81-200 81-553c0-345 210-579 537-579 292 0 525 185 525 567v84H378c7 183 109 277 260 277 105 0 184-46 216-132l272 51C1071-99 893 22 633 22zM380-669h474c-15-146-94-237-233-237-143 0-229 99-241 237" id="af"/><path d="M128 0v-1118h290v195h12c54-169 184-238 367-200v268c-27-8-86-15-130-15-138 0-239 95-239 234V0H128" id="ag"/><path d="M443 0L31-1118h319c90 293 199 572 268 885 66-313 175-593 264-885h315L784 0H443" id="ah"/><g id="c"><use transform="matrix(0.008463541666666668,0,0,0.008463541666666668,0,0)" xlink:href="#ae"/><use transform="matrix(0.008463541666666668,0,0,0.008463541666666668,9.707682291666668,0)" xlink:href="#af"/><use transform="matrix(0.008463541666666668,0,0,0.008463541666666668,20.033203125,0)" xlink:href="#ag"/><use transform="matrix(0.008463541666666668,0,0,0.008463541666666668,27.362630208333332,0)" xlink:href="#ah"/><use transform="matrix(0.008463541666666668,0,0,0.008463541666666668,37.44270833333333,0)" xlink:href="#af"/><use transform="matrix(0.008463541666666668,0,0,0.008463541666666668,47.768229166666664,0)" xlink:href="#ag"/><use transform="matrix(0.008463541666666668,0,0,0.008463541666666668,54.826822916666664,0)" xlink:href="#ab"/></g><path d="M711 0l68-411H407L340 0H189l67-411H34l25-150h222l60-366H122l25-152h219l67-411h151l-67 411h372l68-411h151l-67 411h220l-23 152h-222l-60 366h219l-25 150H931L864 0H711zM432-561h372l60-366H492" id="ai"/><use transform="matrix(0.008463541666666668,0,0,0.008463541666666668,0,0)" xlink:href="#ai" id="g"/><path d="M180 0v-1490h528c311 0 458 177 458 395 0 191-114 278-244 313v14c139 9 302 137 302 371 0 225-148 397-499 397H180zm190-168h350c232 0 321-102 321-231 0-149-120-277-311-277H370v508zm0-668h328c160 0 286-101 286-255 0-129-87-231-280-231H370v486" id="aj"/><path d="M471 26C259 26 90-98 90-318c0-256 228-303 435-329 202-27 287-16 287-108 0-139-79-219-234-219-161 0-248 86-283 164l-173-57c86-203 278-265 451-265 150 0 419 46 419 395V0H815v-152h-12C765-73 660 26 471 26zm31-159c199 0 310-134 310-271v-155c-30 35-226 55-295 64-131 17-246 59-246 186 0 116 97 176 231 176" id="ak"/><path d="M613 24c-304 0-509-231-509-576 0-350 205-580 509-580 216 0 392 114 453 309l-173 49c-33-115-133-197-280-197-223 0-326 196-326 419 0 220 103 415 326 415 150 0 252-85 285-206l172 49C1010-95 832 24 613 24" id="al"/><path d="M158 0v-1490h180v865h22l478-493h223L593-638 1096 0H865L456-523 338-412V0H158" id="am"/><path d="M628 24c-324 0-524-230-524-574 0-343 198-582 503-582 237 0 487 146 487 559v75H286c9 234 145 362 343 362 132 0 231-58 273-172l174 48C1024-91 857 24 628 24zM287-650h624c-17-190-120-322-304-322-192 0-309 151-320 322" id="an"/><path d="M338-670V0H158v-1118h173l1 207c72-158 192-221 342-221 226 0 378 139 378 422V0H872v-695c0-172-96-275-252-275-161 0-282 109-282 300" id="ao"/><path d="M577 24c-279 0-473-224-473-580 0-354 195-576 474-576 218 0 287 134 324 193h14v-551h180V0H922v-173h-20C865-111 790 24 577 24zm27-161c203 0 314-172 314-421 0-247-108-413-314-413-212 0-317 181-317 413 0 235 108 421 317 421" id="ap"/><g id="h"><use transform="matrix(0.008463541666666668,0,0,0.008463541666666668,0,0)" xlink:href="#aj"/><use transform="matrix(0.008463541666666668,0,0,0.008463541666666668,11.341145833333336,0)" xlink:href="#ak"/><use transform="matrix(0.008463541666666668,0,0,0.008463541666666668,21.074218750000004,0)" xlink:href="#al"/><use transform="matrix(0.008463541666666668,0,0,0.008463541666666668,30.976562500000007,0)" xlink:href="#am"/><use transform="matrix(0.008463541666666668,0,0,0.008463541666666668,40.10026041666667,0)" xlink:href="#an"/><use transform="matrix(0.008463541666666668,0,0,0.008463541666666668,50.20572916666667,0)" xlink:href="#ao"/><use transform="matrix(0.008463541666666668,0,0,0.008463541666666668,60.44661458333334,0)" xlink:href="#ap"/></g><path d="M218-607c0-325 108-727 258-974h175c-155 315-250 682-250 974 0 265 78 531 250 886H476C306-10 218-315 218-607" id="aq"/><path d="M65 0l393-574-370-544h210c88 136 192 297 267 435 67-142 176-302 264-435h206L661-564 1053 0H844c-94-144-206-310-287-458C484-308 366-142 273 0H65" id="ar"/><path d="M158 418v-1536h174v179h20c37-59 106-193 324-193 279 0 474 222 474 576 0 356-194 580-473 580-213 0-288-135-325-197h-14v591H158zm492-555c209 0 317-186 317-421 0-232-105-413-317-413-206 0-314 166-314 413 0 249 111 421 314 421" id="as"/><path d="M158 0v-1118h174v172h12c41-113 157-188 290-188 26 0 70 2 91 3v181c-11-2-60-10-108-10-161 0-279 109-279 260V0H158" id="at"/><path d="M538 24C308 24 148-78 108-271l171-41c32 123 123 178 257 178 156 0 256-77 256-169 0-77-54-128-164-154l-186-44c-203-48-300-148-300-305 0-192 176-326 414-326 230 0 351 112 402 269l-163 42c-31-80-94-158-238-158-133 0-233 69-233 162 0 83 57 129 188 160l169 40c203 48 298 149 298 302 0 196-179 339-441 339" id="au"/><g id="i"><use transform="matrix(0.008463541666666668,0,0,0.008463541666666668,0,0)" xlink:href="#aq"/><use transform="matrix(0.008463541666666668,0,0,0.008463541666666668,6.127604166666668,0)" xlink:href="#an"/><use transform="matrix(0.008463541666666668,0,0,0.008463541666666668,15.843750000000004,0)" xlink:href="#ar"/><use transform="matrix(0.008463541666666668,0,0,0.008463541666666668,25.305989583333336,0)" xlink:href="#as"/><use transform="matrix(0.008463541666666668,0,0,0.008463541666666668,35.919270833333336,0)" xlink:href="#at"/><use transform="matrix(0.008463541666666668,0,0,0.008463541666666668,42.15690104166667,0)" xlink:href="#an"/><use transform="matrix(0.008463541666666668,0,0,0.008463541666666668,52.26236979166667,0)" xlink:href="#au"/><use transform="matrix(0.008463541666666668,0,0,0.008463541666666668,61.41145833333334,0)" xlink:href="#au"/></g><path d="M593-100v-404H195v-159h398v-403h169v403h398v159H762v404H593" id="av"/><use transform="matrix(0.008463541666666668,0,0,0.008463541666666668,0,0)" xlink:href="#av" id="j"/><path d="M180 0v-1490h510c348 0 508 209 508 474 0 266-160 477-507 477H370V0H180zm190-706h312c236 0 327-133 327-310 0-176-91-307-329-307H370v617" id="aw"/><path d="M613 24c-304 0-509-231-509-576 0-350 205-580 509-580 305 0 511 230 511 580 0 345-206 576-511 576zm0-161c226 0 329-195 329-415 0-222-103-419-329-419-223 0-326 196-326 419 0 220 103 415 326 415" id="ax"/><path d="M598-1118v154H368v674c0 100 37 144 132 144 23 0 62-6 92-12L629-6c-37 13-88 20-134 20-193 0-307-107-307-290v-688H20v-154h168v-266h180v266h230" id="ay"/><path d="M611 442c-248 0-391-105-460-228l146-94c47 65 117 165 314 165 178 0 307-82 307-266v-224h-17C863-141 792-18 576-18c-268 0-472-195-472-546 0-346 197-568 476-568 216 0 288 133 326 193h17v-179h175V29c0 289-215 413-487 413zm-5-620c203 0 314-146 314-390 0-237-108-403-314-403-213 0-319 180-319 403 0 230 109 390 319 390" id="az"/><path d="M657 26c-323 0-524-166-541-416h195c15 169 171 246 346 246 202 0 356-106 356-265 5-203-294-238-475-293-239-73-380-191-380-389 0-252 224-419 512-419 294 0 499 171 508 396H992c-17-145-151-228-328-228-193 0-321 102-321 242 0 156 175 211 284 241l149 41c160 44 422 134 422 412 0 244-197 432-541 432" id="aA"/><path d="M784 20c-382 0-662-292-662-764 0-473 280-766 662-766s660 293 660 766c0 282-99 499-260 629l192 255h-198L1049-33C969 2 880 20 784 20zm-62-486h198l156 205c112-98 183-261 183-483 0-383-209-590-475-590-268 0-477 208-477 590 0 380 209 588 477 588 54 0 106-9 154-25" id="aB"/><path d="M180 0v-1490h190v1322h690V0H180" id="aC"/><path d="M96 279C273-86 346-350 346-607c0-292-95-659-250-974h175c150 246 258 650 258 974 0 297-91 602-258 886H96" id="aD"/><g id="k"><use transform="matrix(0.008463541666666668,0,0,0.008463541666666668,0,0)" xlink:href="#aw"/><use transform="matrix(0.008463541666666668,0,0,0.008463541666666668,10.977213541666668,0)" xlink:href="#ax"/><use transform="matrix(0.008463541666666668,0,0,0.008463541666666668,21.370442708333336,0)" xlink:href="#au"/><use transform="matrix(0.008463541666666668,0,0,0.008463541666666668,30.519531250000004,0)" xlink:href="#ay"/><use transform="matrix(0.008463541666666668,0,0,0.008463541666666668,36.02083333333334,0)" xlink:href="#az"/><use transform="matrix(0.008463541666666668,0,0,0.008463541666666668,46.65104166666668,0)" xlink:href="#at"/><use transform="matrix(0.008463541666666668,0,0,0.008463541666666668,52.888671875000014,0)" xlink:href="#an"/><use transform="matrix(0.008463541666666668,0,0,0.008463541666666668,62.994140625000014,0)" xlink:href="#aA"/><use transform="matrix(0.008463541666666668,0,0,0.008463541666666668,74.11523437500001,0)" xlink:href="#aB"/><use transform="matrix(0.008463541666666668,0,0,0.008463541666666668,87.36914062500001,0)" xlink:href="#aC"/><use transform="matrix(0.008463541666666668,0,0,0.008463541666666668,97.16992187500001,0)" xlink:href="#aD"/></g><g id="m"><use transform="matrix(0.008463541666666668,0,0,0.008463541666666668,0,0)" xlink:href="#ac"/><use transform="matrix(0.008463541666666668,0,0,0.008463541666666668,12.280598958333336,0)" xlink:href="#ad"/><use transform="matrix(0.008463541666666668,0,0,0.008463541666666668,24.56119791666667,0)" xlink:href="#ad"/></g><path d="M158 0v-1118h180V0H158zm91-1301c-68 0-125-53-125-119s57-119 125-119c69 0 126 53 126 119s-57 119-126 119" id="aE"/><path d="M295 13c-75 0-135-60-135-135s60-135 135-135 135 60 135 135S370 13 295 13" id="aF"/><path d="M157-1118h181V80c1 225-123 350-364 338V252c126 9 184-48 183-172v-1198zm91-183c-68 0-125-53-125-119s57-119 125-119c69 0 126 53 126 119s-57 119-126 119" id="aG"/><g id="n"><use transform="matrix(0.008463541666666668,0,0,0.008463541666666668,0,0)" xlink:href="#aE"/><use transform="matrix(0.008463541666666668,0,0,0.008463541666666668,4.197916666666667,0)" xlink:href="#ao"/><use transform="matrix(0.008463541666666668,0,0,0.008463541666666668,14.438802083333336,0)" xlink:href="#ap"/><use transform="matrix(0.008463541666666668,0,0,0.008463541666666668,25.052083333333336,0)" xlink:href="#an"/><use transform="matrix(0.008463541666666668,0,0,0.008463541666666668,34.76822916666667,0)" xlink:href="#ar"/><use transform="matrix(0.008463541666666668,0,0,0.008463541666666668,44.23046875000001,0)" xlink:href="#aF"/><use transform="matrix(0.008463541666666668,0,0,0.008463541666666668,49.22395833333334,0)" xlink:href="#aG"/><use transform="matrix(0.008463541666666668,0,0,0.008463541666666668,53.42187500000001,0)" xlink:href="#au"/><use transform="matrix(0.008463541666666668,0,0,0.008463541666666668,62.57096354166668,0)" xlink:href="#ab"/></g><path d="M537 14c-226 0-379-139-379-422v-710h180v695c0 172 97 275 253 275 160 0 281-109 281-300v-670h181V0H879v-209C806-46 684 14 537 14" id="aH"/><g id="o"><use transform="matrix(0.008463541666666668,0,0,0.008463541666666668,0,0)" xlink:href="#at"/><use transform="matrix(0.008463541666666668,0,0,0.008463541666666668,6.237630208333334,0)" xlink:href="#ax"/><use transform="matrix(0.008463541666666668,0,0,0.008463541666666668,16.630859375,0)" xlink:href="#aH"/><use transform="matrix(0.008463541666666668,0,0,0.008463541666666668,26.880208333333336,0)" xlink:href="#ay"/><use transform="matrix(0.008463541666666668,0,0,0.008463541666666668,32.38151041666667,0)" xlink:href="#an"/><use transform="matrix(0.008463541666666668,0,0,0.008463541666666668,42.48697916666667,0)" xlink:href="#at"/><use transform="matrix(0.008463541666666668,0,0,0.008463541666666668,47.929036458333336,0)" xlink:href="#aF"/><use transform="matrix(0.008463541666666668,0,0,0.008463541666666668,52.92252604166667,0)" xlink:href="#aG"/><use transform="matrix(0.008463541666666668,0,0,0.008463541666666668,57.120442708333336,0)" xlink:href="#au"/><use transform="matrix(0.008463541666666668,0,0,0.008463541666666668,66.26953125,0)" xlink:href="#ab"/></g><path d="M158 0v-1118h175l1 205c55-151 181-225 313-225 147 0 245 90 285 228 53-141 190-228 352-228 194 0 352 125 352 384V0h-181v-749c0-161-105-225-225-225-151 0-243 103-243 244V0H807v-767c0-124-93-207-219-207-131 0-250 92-250 270V0H158" id="aI"/><path d="M338-1490V0H158v-1490h180" id="aJ"/><path d="M409 0L70-1118h191c89 329 165 560 243 925 75-353 154-601 240-925h192c85 325 161 564 235 922 77-354 157-598 244-922h191L1267 0h-179c-86-307-176-590-250-913C763-588 675-308 588 0H409" id="aK"/><g id="q"><use transform="matrix(0.008463541666666668,0,0,0.008463541666666668,0,0)" xlink:href="#aI"/><use transform="matrix(0.008463541666666668,0,0,0.008463541666666668,15.183593750000002,0)" xlink:href="#aE"/><use transform="matrix(0.008463541666666668,0,0,0.008463541666666668,19.381510416666668,0)" xlink:href="#ap"/><use transform="matrix(0.008463541666666668,0,0,0.008463541666666668,29.99479166666667,0)" xlink:href="#ap"/><use transform="matrix(0.008463541666666668,0,0,0.008463541666666668,40.60807291666667,0)" xlink:href="#aJ"/><use transform="matrix(0.008463541666666668,0,0,0.008463541666666668,44.80598958333334,0)" xlink:href="#an"/><use transform="matrix(0.008463541666666668,0,0,0.008463541666666668,54.59830729166667,0)" xlink:href="#aK"/><use transform="matrix(0.008463541666666668,0,0,0.008463541666666668,68.783203125,0)" xlink:href="#ak"/><use transform="matrix(0.008463541666666668,0,0,0.008463541666666668,78.51627604166667,0)" xlink:href="#at"/><use transform="matrix(0.008463541666666668,0,0,0.008463541666666668,84.75390625,0)" xlink:href="#an"/><use transform="matrix(0.008463541666666668,0,0,0.008463541666666668,94.859375,0)" xlink:href="#ab"/></g><g id="s"><use transform="matrix(0.008463541666666668,0,0,0.008463541666666668,0,0)" xlink:href="#ac"/><use transform="matrix(0.008463541666666668,0,0,0.008463541666666668,12.280598958333336,0)" xlink:href="#ad"/><use transform="matrix(0.008463541666666668,0,0,0.008463541666666668,24.56119791666667,0)" xlink:href="#ad"/></g><path d="M338-670V0H158v-1490h180v566c73-149 190-208 336-208 226 0 379 139 379 422V0H872v-695c0-172-96-275-252-275-161 0-282 109-282 300" id="aL"/><g id="t"><use transform="matrix(0.008463541666666668,0,0,0.008463541666666668,0,0)" xlink:href="#ak"/><use transform="matrix(0.008463541666666668,0,0,0.008463541666666668,9.733072916666668,0)" xlink:href="#aH"/><use transform="matrix(0.008463541666666668,0,0,0.008463541666666668,19.982421875,0)" xlink:href="#ay"/><use transform="matrix(0.008463541666666668,0,0,0.008463541666666668,25.652994791666668,0)" xlink:href="#aL"/><use transform="matrix(0.008463541666666668,0,0,0.008463541666666668,35.90234375,0)" xlink:href="#aF"/><use transform="matrix(0.008463541666666668,0,0,0.008463541666666668,40.895833333333336,0)" xlink:href="#aG"/><use transform="matrix(0.008463541666666668,0,0,0.008463541666666668,45.09375,0)" xlink:href="#au"/><use transform="matrix(0.008463541666666668,0,0,0.008463541666666668,54.24283854166667,0)" xlink:href="#ab"/></g><g id="v"><use transform="matrix(0.008463541666666668,0,0,0.008463541666666668,0,0)" xlink:href="#aI"/><use transform="matrix(0.008463541666666668,0,0,0.008463541666666668,15.183593750000002,0)" xlink:href="#ax"/><use transform="matrix(0.008463541666666668,0,0,0.008463541666666668,25.57682291666667,0)" xlink:href="#ap"/><use transform="matrix(0.008463541666666668,0,0,0.008463541666666668,36.19010416666667,0)" xlink:href="#an"/><use transform="matrix(0.008463541666666668,0,0,0.008463541666666668,46.29557291666667,0)" xlink:href="#aJ"/><use transform="matrix(0.008463541666666668,0,0,0.008463541666666668,50.493489583333336,0)" xlink:href="#au"/><use transform="matrix(0.008463541666666668,0,0,0.008463541666666668,59.642578125,0)" xlink:href="#ab"/></g><g id="x"><use transform="matrix(0.008463541666666668,0,0,0.008463541666666668,0,0)" xlink:href="#ac"/><use transform="matrix(0.008463541666666668,0,0,0.008463541666666668,12.280598958333336,0)" xlink:href="#ad"/><use transform="matrix(0.008463541666666668,0,0,0.008463541666666668,24.56119791666667,0)" xlink:href="#ad"/></g><g id="y"><use transform="matrix(0.008463541666666668,0,0,0.008463541666666668,0,0)" xlink:href="#aE"/><use transform="matrix(0.008463541666666668,0,0,0.008463541666666668,4.197916666666667,0)" xlink:href="#ao"/><use transform="matrix(0.008463541666666668,0,0,0.008463541666666668,14.438802083333336,0)" xlink:href="#ap"/><use transform="matrix(0.008463541666666668,0,0,0.008463541666666668,25.052083333333336,0)" xlink:href="#an"/><use transform="matrix(0.008463541666666668,0,0,0.008463541666666668,34.76822916666667,0)" xlink:href="#ar"/><use transform="matrix(0.008463541666666668,0,0,0.008463541666666668,44.23046875000001,0)" xlink:href="#aF"/><use transform="matrix(0.008463541666666668,0,0,0.008463541666666668,49.22395833333334,0)" xlink:href="#aG"/><use transform="matrix(0.008463541666666668,0,0,0.008463541666666668,53.42187500000001,0)" xlink:href="#au"/><use transform="matrix(0.008463541666666668,0,0,0.008463541666666668,62.57096354166668,0)" xlink:href="#ab"/></g><g id="z"><use transform="matrix(0.008463541666666668,0,0,0.008463541666666668,0,0)" xlink:href="#aI"/><use transform="matrix(0.008463541666666668,0,0,0.008463541666666668,15.183593750000002,0)" xlink:href="#an"/><use transform="matrix(0.008463541666666668,0,0,0.008463541666666668,25.289062500000004,0)" xlink:href="#au"/><use transform="matrix(0.008463541666666668,0,0,0.008463541666666668,34.43815104166667,0)" xlink:href="#au"/><use transform="matrix(0.008463541666666668,0,0,0.008463541666666668,43.58723958333334,0)" xlink:href="#ak"/><use transform="matrix(0.008463541666666668,0,0,0.008463541666666668,53.320312500000014,0)" xlink:href="#az"/><use transform="matrix(0.008463541666666668,0,0,0.008463541666666668,63.95052083333335,0)" xlink:href="#an"/><use transform="matrix(0.008463541666666668,0,0,0.008463541666666668,74.05598958333336,0)" xlink:href="#au"/><use transform="matrix(0.008463541666666668,0,0,0.008463541666666668,83.20507812500003,0)" xlink:href="#aF"/><use transform="matrix(0.008463541666666668,0,0,0.008463541666666668,88.19856770833336,0)" xlink:href="#aG"/><use transform="matrix(0.008463541666666668,0,0,0.008463541666666668,92.39648437500003,0)" xlink:href="#au"/><use transform="matrix(0.008463541666666668,0,0,0.008463541666666668,101.5455729166667,0)" xlink:href="#ab"/></g><path d="M361 0L31-1118h315c68 295 127 523 188 845 63-317 128-551 199-845h276c71 296 131 525 196 846 57-321 119-552 186-846h319L1378 0h-305c-73-261-148-486-204-771C813-484 740-261 666 0H361" id="aM"/><path d="M754 19C571 19 479-89 437-179h-14V0H128v-1490h300v560h9c41-89 129-202 319-202 248 0 453 193 453 575 0 372-197 576-455 576zm-92-241c156 0 240-139 240-336 0-196-83-334-240-334-154 0-241 131-241 334 0 202 88 336 241 336" id="aN"/><g id="A"><use transform="matrix(0.008463541666666668,0,0,0.008463541666666668,0,0)" xlink:href="#aM"/><use transform="matrix(0.008463541666666668,0,0,0.008463541666666668,14.498046875000002,0)" xlink:href="#af"/><use transform="matrix(0.008463541666666668,0,0,0.008463541666666668,24.823567708333336,0)" xlink:href="#aN"/><use transform="matrix(0.008463541666666668,0,0,0.008463541666666668,35.75,0)" xlink:href="#ab"/></g><path d="M180 0v-1490h901v168H370v510h643v168H370V0H180" id="aO"/><g id="C"><use transform="matrix(0.008463541666666668,0,0,0.008463541666666668,0,0)" xlink:href="#aO"/><use transform="matrix(0.008463541666666668,0,0,0.008463541666666668,9.724609375000002,0)" xlink:href="#at"/><use transform="matrix(0.008463541666666668,0,0,0.008463541666666668,15.962239583333336,0)" xlink:href="#ax"/><use transform="matrix(0.008463541666666668,0,0,0.008463541666666668,26.355468750000004,0)" xlink:href="#ao"/><use transform="matrix(0.008463541666666668,0,0,0.008463541666666668,36.59635416666667,0)" xlink:href="#ay"/><use transform="matrix(0.008463541666666668,0,0,0.008463541666666668,42.09765625,0)" xlink:href="#an"/><use transform="matrix(0.008463541666666668,0,0,0.008463541666666668,52.203125,0)" xlink:href="#ao"/><use transform="matrix(0.008463541666666668,0,0,0.008463541666666668,62.44401041666668,0)" xlink:href="#ap"/></g><path d="M180 0v-1490h510c348 0 508 194 508 460 0 198-88 351-276 417L1256 0h-220L726-579c-117 2-238 0-356 1V0H180zm190-747h312c235 0 327-108 327-283 0-177-92-293-329-293H370v576" id="aP"/><g id="D"><use transform="matrix(0.008463541666666668,0,0,0.008463541666666668,0,0)" xlink:href="#aq"/><use transform="matrix(0.008463541666666668,0,0,0.008463541666666668,6.322265625000001,0)" xlink:href="#aP"/><use transform="matrix(0.008463541666666668,0,0,0.008463541666666668,17.223307291666668,0)" xlink:href="#an"/><use transform="matrix(0.008463541666666668,0,0,0.008463541666666668,27.498046875,0)" xlink:href="#ak"/><use transform="matrix(0.008463541666666668,0,0,0.008463541666666668,37.23111979166667,0)" xlink:href="#al"/><use transform="matrix(0.008463541666666668,0,0,0.008463541666666668,47.13346354166667,0)" xlink:href="#ay"/></g><path d="M545 20c-263 0-445-160-445-446v-80h190v80c0 182 102 279 255 279 152 0 254-97 254-279v-1064h190v1064c0 286-181 446-444 446" id="aQ"/><g id="E"><use transform="matrix(0.008463541666666668,0,0,0.008463541666666668,0,0)" xlink:href="#aQ"/><use transform="matrix(0.008463541666666668,0,0,0.008463541666666668,9.893880208333334,0)" xlink:href="#aA"/><use transform="matrix(0.008463541666666668,0,0,0.008463541666666668,21.014973958333336,0)" xlink:href="#aD"/></g><g id="G"><use transform="matrix(0.008463541666666668,0,0,0.008463541666666668,0,0)" xlink:href="#ac"/><use transform="matrix(0.008463541666666668,0,0,0.008463541666666668,12.280598958333336,0)" xlink:href="#ad"/><use transform="matrix(0.008463541666666668,0,0,0.008463541666666668,24.56119791666667,0)" xlink:href="#ad"/></g><g id="H"><use transform="matrix(0.008463541666666668,0,0,0.008463541666666668,0,0)" xlink:href="#au"/><use transform="matrix(0.008463541666666668,0,0,0.008463541666666668,9.149088541666668,0)" xlink:href="#at"/><use transform="matrix(0.008463541666666668,0,0,0.008463541666666668,15.386718750000004,0)" xlink:href="#al"/><use transform="matrix(0.008463541666666668,0,0,0.008463541666666668,25.289062500000007,0)" xlink:href="#ab"/></g><g id="K"><use transform="matrix(0.008463541666666668,0,0,0.008463541666666668,0,0)" xlink:href="#ac"/><use transform="matrix(0.008463541666666668,0,0,0.008463541666666668,12.280598958333336,0)" xlink:href="#ad"/><use transform="matrix(0.008463541666666668,0,0,0.008463541666666668,24.56119791666667,0)" xlink:href="#ad"/></g><g id="L"><use transform="matrix(0.008463541666666668,0,0,0.008463541666666668,0,0)" xlink:href="#al"/><use transform="matrix(0.008463541666666668,0,0,0.008463541666666668,9.902343750000002,0)" xlink:href="#ax"/><use transform="matrix(0.008463541666666668,0,0,0.008463541666666668,20.295572916666675,0)" xlink:href="#aI"/><use transform="matrix(0.008463541666666668,0,0,0.008463541666666668,35.47916666666667,0)" xlink:href="#as"/><use transform="matrix(0.008463541666666668,0,0,0.008463541666666668,46.09244791666667,0)" xlink:href="#ax"/><use transform="matrix(0.008463541666666668,0,0,0.008463541666666668,56.48567708333334,0)" xlink:href="#ao"/><use transform="matrix(0.008463541666666668,0,0,0.008463541666666668,66.72656250000001,0)" xlink:href="#an"/><use transform="matrix(0.008463541666666668,0,0,0.008463541666666668,76.83203125000001,0)" xlink:href="#ao"/><use transform="matrix(0.008463541666666668,0,0,0.008463541666666668,87.07291666666669,0)" xlink:href="#ay"/><use transform="matrix(0.008463541666666668,0,0,0.008463541666666668,92.74348958333336,0)" xlink:href="#ab"/></g><g id="M"><use transform="matrix(0.008463541666666668,0,0,0.008463541666666668,0,0)" xlink:href="#ap"/><use transform="matrix(0.008463541666666668,0,0,0.008463541666666668,10.613281250000002,0)" xlink:href="#ak"/><use transform="matrix(0.008463541666666668,0,0,0.008463541666666668,20.346354166666675,0)" xlink:href="#ay"/><use transform="matrix(0.008463541666666668,0,0,0.008463541666666668,26.101562500000007,0)" xlink:href="#ak"/><use transform="matrix(0.008463541666666668,0,0,0.008463541666666668,35.83463541666667,0)" xlink:href="#ab"/></g><g id="O"><use transform="matrix(0.008463541666666668,0,0,0.008463541666666668,0,0)" xlink:href="#aH"/><use transform="matrix(0.008463541666666668,0,0,0.008463541666666668,10.249348958333334,0)" xlink:href="#aE"/><use transform="matrix(0.008463541666666668,0,0,0.008463541666666668,14.447265625,0)" xlink:href="#ab"/></g><g id="Q"><use transform="matrix(0.008463541666666668,0,0,0.008463541666666668,0,0)" xlink:href="#aL"/><use transform="matrix(0.008463541666666668,0,0,0.008463541666666668,10.249348958333334,0)" xlink:href="#ax"/><use transform="matrix(0.008463541666666668,0,0,0.008463541666666668,20.642578125,0)" xlink:href="#ax"/><use transform="matrix(0.008463541666666668,0,0,0.008463541666666668,31.035807291666668,0)" xlink:href="#am"/><use transform="matrix(0.008463541666666668,0,0,0.008463541666666668,40.548828125,0)" xlink:href="#au"/><use transform="matrix(0.008463541666666668,0,0,0.008463541666666668,49.69791666666667,0)" xlink:href="#ab"/></g><g id="R"><use transform="matrix(0.008463541666666668,0,0,0.008463541666666668,0,0)" xlink:href="#as"/><use transform="matrix(0.008463541666666668,0,0,0.008463541666666668,10.782552083333334,0)" xlink:href="#ak"/><use transform="matrix(0.008463541666666668,0,0,0.008463541666666668,20.515625000000004,0)" xlink:href="#az"/><use transform="matrix(0.008463541666666668,0,0,0.008463541666666668,31.14583333333334,0)" xlink:href="#an"/><use transform="matrix(0.008463541666666668,0,0,0.008463541666666668,41.251302083333336,0)" xlink:href="#au"/><use transform="matrix(0.008463541666666668,0,0,0.008463541666666668,50.400390625,0)" xlink:href="#ab"/></g><path d="M481 0L54-1118h197c107 314 236 620 325 951 87-331 217-637 324-951h197L670 0H481" id="aR"/><g id="S"><use transform="matrix(0.008463541666666668,0,0,0.008463541666666668,0,0)" xlink:href="#au"/><use transform="matrix(0.008463541666666668,0,0,0.008463541666666668,9.149088541666668,0)" xlink:href="#an"/><use transform="matrix(0.008463541666666668,0,0,0.008463541666666668,19.25455729166667,0)" xlink:href="#at"/><use transform="matrix(0.008463541666666668,0,0,0.008463541666666668,26.050781250000004,0)" xlink:href="#aR"/><use transform="matrix(0.008463541666666668,0,0,0.008463541666666668,35.792317708333336,0)" xlink:href="#aE"/><use transform="matrix(0.008463541666666668,0,0,0.008463541666666668,39.990234375,0)" xlink:href="#al"/><use transform="matrix(0.008463541666666668,0,0,0.008463541666666668,49.892578125,0)" xlink:href="#an"/><use transform="matrix(0.008463541666666668,0,0,0.008463541666666668,59.998046875,0)" xlink:href="#au"/><use transform="matrix(0.008463541666666668,0,0,0.008463541666666668,69.14713541666667,0)" xlink:href="#ab"/></g></defs></g></svg>